<?xml version="1.0" encoding="UTF-8"?> <svg xmlns="http://www.w3.org/2000/svg" width="55" height="55" viewBox="0 0 55 55" fill="none"><rect width="55" height="55" rx="16" fill="url(#paint0_linear_228_1727)"></rect><g clip-path="url(#clip0_228_1727)"><path d="M41.7169 14.6191L43.9868 17.7402L36.8935 36.4664L30.084 33.9128L38.0284 14.9029L41.7169 14.6191Z" fill="#7F76B3" fill-opacity="0.1"></path><path d="M34.7465 39.9651C33.2973 41.3069 30.4551 43.8721 30.0623 43.7227C29.6671 43.5725 29.3968 39.778 29.2846 37.853C29.2424 37.1281 29.3629 36.405 29.627 35.7286L30.0623 34.614L37.0585 16.6992C37.7614 14.8994 39.758 13.9385 41.564 14.6252C43.3217 15.2935 44.1355 17.2959 43.4515 19.0475L36.5365 36.7545L36.0129 38.0951C35.7353 38.8061 35.3066 39.4465 34.7465 39.9651Z" fill="#7F76B3" fill-opacity="0.1"></path><path d="M30.0623 34.614L29.627 35.7286C29.3629 36.405 29.2424 37.1281 29.2846 37.853C29.3968 39.778 29.6671 43.5725 30.0623 43.7227C30.4551 43.8721 33.2973 41.3069 34.7465 39.9651C35.3066 39.4465 35.7353 38.8061 36.0129 38.0951L36.5365 36.7545M30.0623 34.614L37.0585 16.6992C37.7614 14.8994 39.758 13.9385 41.564 14.6252C43.3217 15.2935 44.1355 17.2959 43.4515 19.0475L36.5365 36.7545M30.0623 34.614C30.0623 34.614 31.5021 34.397 33.4882 35.0537C35.4743 35.7104 36.5365 36.7545 36.5365 36.7545" stroke="#7F76B3" stroke-width="2" stroke-linecap="round" stroke-linejoin="round"></path><path d="M16.465 19.4463C16.465 19.4463 15.3301 21.6994 15.3301 29.0931C15.3301 36.4868 16.465 38.7399 16.465 38.7399" stroke="#7F76B3" stroke-width="2" stroke-linecap="round" stroke-linejoin="round"></path><path d="M19.3018 16.6094C19.3018 16.6094 20.7204 15.7582 25.402 15.4745C30.0835 15.1907 32.6371 15.7582 32.6371 15.7582" stroke="#7F76B3" stroke-width="2" stroke-linecap="round" stroke-linejoin="round"></path><path d="M19.3018 41.5786H25.26" stroke="#7F76B3" stroke-width="2" stroke-linecap="round" stroke-linejoin="round"></path><path d="M14.1943 16.8949C14.1943 18.3052 15.3376 19.4484 16.7479 19.4484C18.1582 19.4484 19.3015 18.3052 19.3015 16.8949C19.3015 15.4846 18.1582 14.3413 16.7479 14.3413C15.3376 14.3413 14.1943 15.4846 14.1943 16.8949Z" fill="#7F76B3" fill-opacity="0.1" stroke="#7F76B3" stroke-width="2" stroke-linecap="round" stroke-linejoin="round"></path><path d="M14.1943 41.2953C14.1943 42.7056 15.3376 43.8488 16.7479 43.8488C18.1582 43.8488 19.3015 42.7056 19.3015 41.2953C19.3015 39.885 18.1582 38.7417 16.7479 38.7417C15.3376 38.7417 14.1943 39.885 14.1943 41.2953Z" fill="#7F76B3" fill-opacity="0.1" stroke="#7F76B3" stroke-width="2" stroke-linecap="round" stroke-linejoin="round"></path></g><defs><linearGradient id="paint0_linear_228_1727" x1="0" y1="0" x2="59.3575" y2="49.8069" gradientUnits="userSpaceOnUse"><stop stop-color="#F8F8FC"></stop><stop offset="1" stop-color="#F8F8FC"></stop></linearGradient><clipPath id="clip0_228_1727"><rect width="32" height="32" fill="white" transform="translate(13.0996 13.1001)"></rect></clipPath></defs></svg> 