<?xml version="1.0" encoding="UTF-8"?> <svg xmlns="http://www.w3.org/2000/svg" width="1440" height="360" viewBox="0 0 1440 360" fill="none"><path d="M-269 0.92569V293.817C-268.864 293.843 -268.7 293.874 -268.508 293.91C-267.85 294.033 -266.863 294.216 -265.548 294.455C-262.917 294.933 -258.974 295.634 -253.726 296.526C-243.23 298.31 -227.515 300.86 -206.646 303.92C-164.906 310.039 -102.545 318.199 -20.0667 326.359C144.888 342.679 390.309 359 712.153 359C1033.99 359 1279.41 342.679 1444.37 326.359C1526.85 318.199 1589.21 310.039 1630.95 303.92C1651.83 300.86 1667.53 298.31 1678.03 296.526C1683.27 295.634 1687.23 294.933 1689.85 294.455C1691.17 294.216 1692.16 294.033 1692.82 293.91C1693 293.874 1693.17 293.843 1693.31 293.817V0.92569L1692.28 1.07455C1691.13 1.23932 1689.42 1.48459 1687.19 1.80432C1682.71 2.44379 1676.1 3.38098 1667.54 4.57324C1650.42 6.96024 1625.55 10.3687 1594.51 14.4592C1532.42 22.6392 1445.64 33.5466 1346.88 44.4539C1149.36 66.2675 903.889 88.0847 712.153 88.0847C520.417 88.0847 274.948 66.2675 77.4286 44.4539C-21.3347 33.5466 -108.115 22.6392 -170.205 14.4592C-201.251 10.3687 -226.123 6.96024 -243.235 4.57324C-251.791 3.38098 -258.406 2.44379 -262.883 1.80432C-265.121 1.48459 -266.825 1.23932 -267.969 1.07455C-268.388 1.01355 -268.732 0.964722 -269 0.92569Z" fill="url(#paint0_linear_228_1475)" stroke="url(#paint1_linear_228_1475)" stroke-width="1.22034"></path><defs><linearGradient id="paint0_linear_228_1475" x1="712.153" y1="261.644" x2="712.153" y2="27.1008" gradientUnits="userSpaceOnUse"><stop stop-color="#FAFAFF"></stop><stop offset="1" stop-color="#FAFAFF" stop-opacity="0"></stop></linearGradient><linearGradient id="paint1_linear_228_1475" x1="711.542" y1="546.322" x2="711.542" y2="174.729" gradientUnits="userSpaceOnUse"><stop stop-color="#CECEEA" stop-opacity="0.62"></stop><stop offset="1" stop-color="#CECEEA" stop-opacity="0"></stop></linearGradient></defs></svg> 