<?xml version="1.0" encoding="UTF-8"?> <svg xmlns="http://www.w3.org/2000/svg" width="1440" height="361" viewBox="0 0 1440 361" fill="none"><path d="M-265.424 359.445V66.5532C-265.288 66.5274 -265.124 66.4966 -264.932 66.4607C-264.274 66.3373 -263.287 66.1543 -261.972 65.9153C-259.341 65.4376 -255.397 64.7366 -250.15 63.8444C-239.654 62.0599 -223.939 59.5104 -203.069 56.4506C-161.33 50.3312 -98.9684 42.1714 -16.4906 34.0114C148.464 17.6912 393.885 1.37024 715.729 1.37024C1037.57 1.37024 1282.99 17.6912 1447.94 34.0114C1530.43 42.1714 1592.79 50.3312 1634.52 56.4506C1655.4 59.5104 1671.11 62.0599 1681.6 63.8444C1686.85 64.7366 1690.8 65.4376 1693.43 65.9153C1694.75 66.1543 1695.73 66.3373 1696.39 66.4607C1696.58 66.4966 1696.75 66.5274 1696.88 66.5532V359.445L1695.86 359.296C1694.71 359.131 1693 358.886 1690.77 358.566C1686.29 357.926 1679.67 356.989 1671.12 355.797C1654 353.41 1629.13 350.002 1598.08 345.911C1535.99 337.731 1449.21 326.824 1350.45 315.916C1152.94 294.103 907.465 272.286 715.729 272.286C523.993 272.286 278.524 294.103 81.0048 315.916C-17.7585 326.824 -104.539 337.731 -166.629 345.911C-197.674 350.002 -222.547 353.41 -239.659 355.797C-248.214 356.989 -254.83 357.926 -259.307 358.566C-261.545 358.886 -263.249 359.131 -264.393 359.296C-264.812 359.357 -265.156 359.406 -265.424 359.445Z" fill="url(#paint0_linear_228_946)" stroke="url(#paint1_linear_228_946)" stroke-width="1.22034"></path><defs><linearGradient id="paint0_linear_228_946" x1="715.729" y1="98.7262" x2="715.729" y2="333.269" gradientUnits="userSpaceOnUse"><stop stop-color="#FAFAFF"></stop><stop offset="1" stop-color="#FAFAFF" stop-opacity="0"></stop></linearGradient><linearGradient id="paint1_linear_228_946" x1="715.119" y1="-185.952" x2="715.119" y2="185.641" gradientUnits="userSpaceOnUse"><stop stop-color="#CECEEA" stop-opacity="0.62"></stop><stop offset="1" stop-color="#CECEEA" stop-opacity="0"></stop></linearGradient></defs></svg> 