<?xml version="1.0" encoding="UTF-8"?> <svg xmlns="http://www.w3.org/2000/svg" width="20" height="21" viewBox="0 0 20 21" fill="none"><g clip-path="url(#clip0_638_2101)"><path opacity="0.942" fill-rule="evenodd" clip-rule="evenodd" d="M14.1992 0.660156C14.9284 0.660156 15.6575 0.660156 16.3867 0.660156C16.4832 0.72194 16.5418 0.813086 16.5625 0.933594C16.5964 1.29874 16.6355 1.66332 16.6797 2.02734C16.943 1.79485 17.2099 1.56698 17.4805 1.34375C17.6159 1.2349 17.7592 1.22188 17.9102 1.30469C18.3854 1.77995 18.8607 2.25521 19.3359 2.73047C19.4188 2.88149 19.4057 3.02472 19.2969 3.16016C19.0736 3.43071 18.8458 3.69764 18.6133 3.96094C18.9773 4.00515 19.3419 4.04421 19.707 4.07812C19.8275 4.09884 19.9187 4.15743 19.9805 4.25391C19.9805 4.98309 19.9805 5.71223 19.9805 6.44141C19.9187 6.53789 19.8275 6.59648 19.707 6.61719C19.3419 6.65109 18.9773 6.69016 18.6133 6.73438C18.8458 6.99766 19.0736 7.26461 19.2969 7.53516C19.4057 7.67059 19.4188 7.81383 19.3359 7.96484C18.8607 8.44012 18.3854 8.91535 17.9102 9.39062C17.7592 9.47344 17.6159 9.46039 17.4805 9.35156C17.2099 9.12832 16.943 8.90047 16.6797 8.66797C16.6355 9.03199 16.5964 9.39656 16.5625 9.76172C16.5466 9.87867 16.4881 9.96332 16.3867 10.0156C15.628 10.0537 14.8728 10.0407 14.1211 9.97656C14.0736 9.91219 14.041 9.84059 14.0234 9.76172C13.9984 9.40699 13.9528 9.05543 13.8867 8.70703C13.632 8.92926 13.3716 9.1441 13.1055 9.35156C12.97 9.46039 12.8268 9.47344 12.6758 9.39062C12.2005 8.91535 11.7253 8.44012 11.25 7.96484C11.1672 7.81383 11.1802 7.67059 11.2891 7.53516C11.5123 7.26461 11.7402 6.99766 11.9727 6.73438C11.6214 6.69273 11.2699 6.65367 10.918 6.61719C10.7847 6.61262 10.6871 6.55402 10.625 6.44141C10.599 5.71223 10.599 4.98309 10.625 4.25391C10.6871 4.14129 10.7847 4.0827 10.918 4.07812C11.2699 4.04164 11.6214 4.00257 11.9727 3.96094C11.7402 3.69764 11.5123 3.43071 11.2891 3.16016C11.1802 3.02472 11.1672 2.88149 11.25 2.73047C11.7253 2.25521 12.2005 1.77995 12.6758 1.30469C12.8268 1.22188 12.97 1.2349 13.1055 1.34375C13.3716 1.55122 13.632 1.76606 13.8867 1.98828C13.9528 1.63987 13.9984 1.28831 14.0234 0.933594C14.0442 0.813086 14.1027 0.72194 14.1992 0.660156ZM14.668 1.28516C15.0847 1.28516 15.5013 1.28516 15.918 1.28516C15.964 1.8235 16.0356 2.35735 16.1328 2.88672C16.2365 2.99196 16.3602 3.02451 16.5039 2.98438C16.904 2.71463 17.2816 2.41515 17.6367 2.08594C17.6758 2.05989 17.7149 2.05989 17.7539 2.08594C18.0421 2.36103 18.3155 2.64749 18.5742 2.94531C18.2688 3.329 17.9628 3.71311 17.6563 4.09766C17.595 4.29786 17.6536 4.4476 17.832 4.54688C18.3404 4.60551 18.8482 4.6641 19.3555 4.72266C19.3555 5.13934 19.3555 5.55598 19.3555 5.97266C18.8178 6.02379 18.284 6.09539 17.7539 6.1875C17.6459 6.30449 17.6134 6.44121 17.6563 6.59766C17.941 6.97359 18.2404 7.3382 18.5547 7.69141C18.5808 7.73047 18.5808 7.76953 18.5547 7.80859C18.2796 8.09676 17.9931 8.3702 17.6953 8.62891C17.3117 8.32344 16.9275 8.01746 16.543 7.71094C16.2152 7.64793 16.0524 7.78465 16.0547 8.12109C16.0142 8.55191 15.9686 8.9816 15.918 9.41016C15.5013 9.41016 15.0847 9.41016 14.668 9.41016C14.6146 8.90223 14.556 8.39441 14.4922 7.88672C14.3929 7.70824 14.2432 7.64965 14.043 7.71094C13.6584 8.01746 13.2743 8.32344 12.8906 8.62891C12.5928 8.3702 12.3063 8.09676 12.0313 7.80859C12.0052 7.76953 12.0052 7.73047 12.0313 7.69141C12.3455 7.3382 12.645 6.97359 12.9297 6.59766C12.991 6.39746 12.9324 6.2477 12.7539 6.14844C12.2714 6.08977 11.7896 6.03117 11.3086 5.97266C11.2565 5.55598 11.2565 5.13934 11.3086 4.72266C11.7896 4.66414 12.2714 4.60555 12.7539 4.54688C12.9324 4.4476 12.991 4.29786 12.9297 4.09766C12.645 3.72171 12.3455 3.35713 12.0313 3.00391C12.0052 2.96484 12.0052 2.92578 12.0313 2.88672C12.3063 2.59854 12.5928 2.3251 12.8906 2.06641C13.2466 2.33102 13.5916 2.61097 13.9258 2.90625C14.2938 3.09661 14.4956 2.98593 14.5313 2.57422C14.5717 2.1434 14.6173 1.71371 14.668 1.28516ZM15.0195 4.13672C15.6867 4.05673 16.162 4.31715 16.4453 4.91797C16.6317 5.64527 16.3908 6.17262 15.7227 6.5C14.9954 6.68637 14.468 6.44547 14.1406 5.77734C13.9545 4.96426 14.2475 4.41738 15.0195 4.13672Z" fill="#24223E"></path><path opacity="0.992" fill-rule="evenodd" clip-rule="evenodd" d="M19.9805 8.31641C19.9805 10.9596 19.9805 13.6029 19.9805 16.2461C19.8575 16.5579 19.6361 16.7727 19.3164 16.8906C16.9597 16.9102 14.6029 16.9167 12.2461 16.9102C12.308 17.5229 12.3796 18.1349 12.4609 18.7461C13.0765 18.7783 13.695 18.7979 14.3164 18.8047C14.6354 18.9154 14.8503 19.1302 14.9609 19.4492C14.987 19.8008 14.987 20.1523 14.9609 20.5039C14.934 20.5762 14.8884 20.6283 14.8242 20.6602C11.595 20.6602 8.3659 20.6602 5.13672 20.6602C5.0725 20.6283 5.02695 20.5762 5 20.5039C4.97395 20.1523 4.97395 19.8008 5 19.4492C5.11066 19.1302 5.32551 18.9154 5.64453 18.8047C6.2659 18.7979 6.88441 18.7783 7.5 18.7461C7.58129 18.1349 7.65289 17.5229 7.71484 16.9102C5.35805 16.9167 3.00127 16.9102 0.644531 16.8906C0.324829 16.7727 0.103475 16.5579 -0.0195312 16.2461C-0.0195312 12.5221 -0.0195312 8.79817 -0.0195312 5.07422C0.103475 4.76246 0.324829 4.54762 0.644531 4.42969C3.80859 4.40365 6.97266 4.40365 10.1367 4.42969C10.2545 4.4894 10.3066 4.58707 10.293 4.72266C10.3066 4.85824 10.2545 4.9559 10.1367 5.01563C7.06379 5.02863 3.9909 5.04168 0.917969 5.05469C0.742188 5.07422 0.644531 5.17188 0.625 5.34766C0.605469 8.36848 0.598957 11.3893 0.605469 14.4102C6.85547 14.4102 13.1055 14.4102 19.3555 14.4102C19.3489 12.3789 19.3555 10.3476 19.375 8.31641C19.4347 8.19859 19.5324 8.14652 19.668 8.16016C19.8073 8.15164 19.9114 8.20375 19.9805 8.31641ZM10.1758 9.44922C10.541 9.44395 10.6452 9.60672 10.4883 9.9375C10.1545 10.0673 10.0048 9.9566 10.0391 9.60547C10.066 9.5332 10.1116 9.48109 10.1758 9.44922ZM8.61328 12.8867C8.97852 12.8814 9.0827 13.0442 8.92578 13.375C8.59203 13.5048 8.4423 13.3941 8.47656 13.043C8.50352 12.9707 8.54906 12.9186 8.61328 12.8867ZM0.605469 15.0352C6.85547 15.0352 13.1055 15.0352 19.3555 15.0352C19.362 15.3479 19.3555 15.6604 19.3359 15.9727C19.3164 16.1484 19.2188 16.2461 19.043 16.2656C13.0013 16.2917 6.95965 16.2917 0.917969 16.2656C0.742188 16.2461 0.644531 16.1484 0.625 15.9727C0.60548 15.6604 0.598969 15.3479 0.605469 15.0352ZM8.41797 16.9102C9.45973 16.9036 10.5014 16.9102 11.543 16.9297C11.6417 17.544 11.7198 18.1625 11.7773 18.7852C10.5794 18.7852 9.38152 18.7852 8.18359 18.7852C8.24269 18.1561 8.32082 17.5311 8.41797 16.9102ZM5.91797 19.4102C8.62633 19.4036 11.3346 19.4102 14.043 19.4297C14.2188 19.4492 14.3164 19.5469 14.3359 19.7227C14.3554 19.826 14.3619 19.9302 14.3555 20.0352C11.4388 20.0352 8.52215 20.0352 5.60547 20.0352C5.58598 19.8452 5.62504 19.6694 5.72266 19.5078C5.79355 19.4782 5.85863 19.4457 5.91797 19.4102Z" fill="#24223E"></path><path opacity="0.978" fill-rule="evenodd" clip-rule="evenodd" d="M8.45703 5.34744C9.03778 5.25025 9.43492 5.47158 9.64844 6.0115C9.76227 6.55197 9.57348 6.94259 9.08203 7.18337C9.04949 7.66462 9.02996 8.14638 9.02344 8.62869C9.00391 8.70029 8.95832 8.74587 8.88672 8.7654C8.20977 8.78494 7.5327 8.79146 6.85547 8.78494C6.85547 8.99326 6.85547 9.20162 6.85547 9.40994C7.70223 9.42294 8.5486 9.40994 9.39453 9.37087C9.73098 8.77052 10.2127 8.62076 10.8398 8.92165C11.2595 9.30412 11.3441 9.75333 11.0938 10.2693C10.776 10.6547 10.3789 10.7654 9.90235 10.6013C9.6734 10.4831 9.50414 10.3073 9.39453 10.074C8.5486 10.0349 7.70223 10.0219 6.85547 10.0349C6.85547 10.2433 6.85547 10.4516 6.85547 10.6599C7.5327 10.6534 8.20977 10.6599 8.88672 10.6795C8.95832 10.699 9.00391 10.7446 9.02344 10.8162C9.02996 11.2985 9.04949 11.7802 9.08203 12.2615C9.68238 12.5979 9.83215 13.0797 9.53125 13.7068C9.21352 14.0922 8.81637 14.2029 8.33985 14.0388C7.77168 13.6934 7.63496 13.2182 7.92969 12.6131C8.05145 12.4586 8.20117 12.3414 8.37891 12.2615C8.41789 11.937 8.4309 11.6115 8.41797 11.2849C7.89715 11.2849 7.37629 11.2849 6.85547 11.2849C6.86195 11.6497 6.85547 12.0143 6.83594 12.3787C6.81641 12.4503 6.77082 12.4959 6.69922 12.5154C4.9284 12.5415 3.15755 12.5415 1.38672 12.5154C1.31511 12.4959 1.26953 12.4503 1.25 12.3787C1.22396 10.6079 1.22396 8.83701 1.25 7.06619C1.26953 6.99458 1.31511 6.949 1.38672 6.92947C3.15755 6.90341 4.9284 6.90341 6.69922 6.92947C6.77082 6.949 6.81641 6.99458 6.83594 7.06619C6.85547 7.43052 6.86195 7.79513 6.85547 8.15994C7.37629 8.15994 7.89715 8.15994 8.41797 8.15994C8.4309 7.83337 8.41789 7.50787 8.37891 7.18337C7.77856 6.84693 7.62879 6.36517 7.92969 5.73806C8.06949 5.55177 8.24528 5.42154 8.45703 5.34744ZM8.61328 6.0115C8.97852 6.00622 9.0827 6.169 8.92578 6.49978C8.59203 6.62955 8.44231 6.51888 8.47656 6.16775C8.50352 6.09548 8.54906 6.04337 8.61328 6.0115ZM1.85547 7.53494C3.3138 7.53494 4.77215 7.53494 6.23047 7.53494C6.23047 8.99326 6.23047 10.4516 6.23047 11.9099C4.77215 11.9099 3.3138 11.9099 1.85547 11.9099C1.85547 10.4516 1.85547 8.99326 1.85547 7.53494ZM10.1758 9.449C10.1116 9.48087 10.066 9.53298 10.0391 9.60525C10.0048 9.95638 10.1545 10.067 10.4883 9.93728C10.6452 9.6065 10.541 9.44373 10.1758 9.449ZM8.61328 12.8865C8.54906 12.9184 8.50352 12.9705 8.47656 13.0427C8.44231 13.3939 8.59203 13.5045 8.92578 13.3748C9.0827 13.044 8.97852 12.8812 8.61328 12.8865Z" fill="#24223E"></path><path fill-rule="evenodd" clip-rule="evenodd" d="M12.793 11.2852C14.043 11.2852 15.293 11.2852 16.543 11.2852C16.543 11.4935 16.543 11.7018 16.543 11.9102C15.293 11.9102 14.043 11.9102 12.793 11.9102C12.793 11.7018 12.793 11.4935 12.793 11.2852Z" fill="#24223E"></path><path fill-rule="evenodd" clip-rule="evenodd" d="M17.168 11.2852C17.3763 11.2852 17.5846 11.2852 17.793 11.2852C17.793 11.4935 17.793 11.7018 17.793 11.9102C17.5846 11.9102 17.3763 11.9102 17.168 11.9102C17.168 11.7018 17.168 11.4935 17.168 11.2852Z" fill="#24223E"></path><path fill-rule="evenodd" clip-rule="evenodd" d="M12.793 12.5352C13.0013 12.5352 13.2096 12.5352 13.418 12.5352C13.418 12.7435 13.418 12.9518 13.418 13.1602C13.2096 13.1602 13.0013 13.1602 12.793 13.1602C12.793 12.9518 12.793 12.7435 12.793 12.5352Z" fill="#24223E"></path><path fill-rule="evenodd" clip-rule="evenodd" d="M14.043 12.5352C15.293 12.5352 16.543 12.5352 17.793 12.5352C17.793 12.7435 17.793 12.9518 17.793 13.1602C16.543 13.1602 15.293 13.1602 14.043 13.1602C14.043 12.9518 14.043 12.7435 14.043 12.5352Z" fill="#24223E"></path></g><defs><clipPath id="clip0_638_2101"><rect width="20" height="20" fill="white" transform="translate(0 0.679688)"></rect></clipPath></defs></svg> 