<?xml version="1.0" encoding="UTF-8"?> <svg xmlns="http://www.w3.org/2000/svg" width="20" height="21" viewBox="0 0 20 21" fill="none"><path opacity="0.989" fill-rule="evenodd" clip-rule="evenodd" d="M1.26953 4.32141C5.4102 4.3149 9.55082 4.32141 13.6914 4.34094C14.2135 4.53211 14.4284 4.90321 14.3359 5.45422C14.1406 5.66254 13.9453 5.66254 13.75 5.45422C13.7414 5.28161 13.6828 5.13184 13.5742 5.00501C13.5222 4.992 13.47 4.97895 13.418 4.96594C9.40586 4.92723 5.39543 4.94024 1.38672 5.00501C1.29814 5.06586 1.25257 5.15047 1.25 5.25891C1.23047 7.44637 1.22396 9.63387 1.23047 11.8214C3.69144 11.8149 6.15238 11.8214 8.61328 11.8409C8.8216 12.0363 8.8216 12.2316 8.61328 12.4269C6.15238 12.4464 3.69144 12.4529 1.23047 12.4464C1.22396 12.9674 1.23047 13.4882 1.25 14.0089C1.26808 14.1832 1.36573 14.2809 1.54297 14.3019C3.89974 14.3149 6.25652 14.3279 8.61328 14.3409C8.8216 14.5363 8.8216 14.7316 8.61328 14.9269C7.93621 14.9399 7.2591 14.9529 6.58203 14.9659C6.52004 15.4154 6.35074 15.819 6.07422 16.1769C6.90754 16.1899 7.7409 16.2029 8.57422 16.2159C8.64582 16.2355 8.69141 16.2811 8.71094 16.3527C8.74723 16.4989 8.7277 16.6356 8.65234 16.7628C7.27547 16.8274 5.89524 16.8404 4.51172 16.8019C4.27227 16.6222 4.25922 16.4268 4.47266 16.2159C4.70703 16.2029 4.94141 16.1899 5.17578 16.1769C5.5525 15.8523 5.79988 15.4487 5.91797 14.9659C4.36848 14.9529 2.81901 14.9399 1.26953 14.9269C0.95052 14.8162 0.735677 14.6014 0.625001 14.2823C0.598958 11.1834 0.598958 8.08442 0.625001 4.98547C0.742935 4.66579 0.957778 4.44442 1.26953 4.32141Z" fill="#24223E"></path><path opacity="0.964" fill-rule="evenodd" clip-rule="evenodd" d="M10.2539 6.15735C12.2344 6.13891 14.2135 6.15844 16.1914 6.21594C16.6279 6.36602 16.8557 6.672 16.875 7.13391C16.9113 7.82575 16.8983 8.51587 16.8359 9.20422C16.6635 9.34294 16.4812 9.35594 16.2891 9.24329C16.2325 8.85676 16.2129 8.46614 16.2305 8.07141C14.1472 8.07141 12.0638 8.07141 9.98048 8.07141C9.98048 9.94641 9.98048 11.8214 9.98048 13.6964C11.3868 13.6899 12.7931 13.6964 14.1992 13.7159C14.317 13.7757 14.3691 13.8733 14.3555 14.0089C14.3691 14.1445 14.317 14.2422 14.1992 14.3019C12.7931 14.3214 11.3868 14.3279 9.98048 14.3214C9.97396 14.8424 9.98048 15.3632 10 15.8839C10.0181 16.0582 10.1158 16.1559 10.293 16.1769C11.595 16.1899 12.8972 16.2029 14.1992 16.2159C14.317 16.2757 14.3691 16.3733 14.3555 16.5089C14.3691 16.6445 14.317 16.7422 14.1992 16.8019C12.806 16.8279 11.4128 16.8279 10.0195 16.8019C9.60142 16.6572 9.37356 16.3642 9.33595 15.923C9.30989 12.9803 9.30989 10.0375 9.33595 7.09485C9.41454 6.55407 9.72052 6.24157 10.2539 6.15735ZM10.293 6.82141C12.168 6.81489 14.043 6.82141 15.918 6.84094C16.0264 6.84352 16.111 6.88907 16.1719 6.97766C16.217 7.13071 16.2366 7.28696 16.2305 7.44641C14.1472 7.44641 12.0638 7.44641 9.98048 7.44641C9.97438 7.28696 9.99392 7.13071 10.0391 6.97766C10.1091 6.89454 10.1937 6.84247 10.293 6.82141Z" fill="#24223E"></path><path opacity="0.918" fill-rule="evenodd" clip-rule="evenodd" d="M2.08939 6.78236C2.2504 6.78142 2.3741 6.84654 2.46049 6.97767C2.48653 7.29017 2.48653 7.60267 2.46049 7.91517C2.40077 8.03298 2.30312 8.08505 2.16752 8.07142C2.07275 8.07517 1.98812 8.04916 1.91361 7.9933C1.80001 7.65974 1.78699 7.32119 1.87455 6.97767C1.91777 6.8756 1.98939 6.81048 2.08939 6.78236Z" fill="#24223E"></path><path opacity="0.93" fill-rule="evenodd" clip-rule="evenodd" d="M2.08984 8.65734C2.25085 8.65641 2.37455 8.72152 2.46094 8.85266C2.48698 9.58184 2.48698 10.311 2.46094 11.0402C2.40123 11.158 2.30357 11.21 2.16797 11.1964C1.95084 11.2072 1.84016 11.103 1.83594 10.8839C1.8099 10.2589 1.8099 9.63391 1.83594 9.00891C1.8455 8.83227 1.93013 8.71508 2.08984 8.65734Z" fill="#24223E"></path><path opacity="0.918" fill-rule="evenodd" clip-rule="evenodd" d="M10.8396 8.65734C11.0006 8.65641 11.1243 8.72152 11.2107 8.85266C11.2368 9.16516 11.2368 9.47766 11.2107 9.79016C11.151 9.90797 11.0533 9.96004 10.9177 9.94641C10.8 9.95586 10.7024 9.9168 10.6248 9.82922C10.5483 9.50336 10.5483 9.17785 10.6248 8.85266C10.6776 8.7648 10.7492 8.69969 10.8396 8.65734Z" fill="#24223E"></path><path opacity="0.964" fill-rule="evenodd" clip-rule="evenodd" d="M15.6446 9.94642C16.6603 9.93989 17.6759 9.94642 18.6915 9.96595C18.9657 10.0578 19.1675 10.2336 19.297 10.4933C19.3615 12.379 19.3745 14.267 19.336 16.1574C19.2442 16.4315 19.0684 16.6334 18.8087 16.7628C17.7564 16.8269 16.7017 16.8399 15.6446 16.8019C15.3704 16.71 15.1686 16.5343 15.0391 16.2745C14.9746 14.3888 14.9616 12.5008 15.0001 10.6105C15.118 10.2908 15.3329 10.0694 15.6446 9.94642ZM15.918 10.5714C16.7515 10.5649 17.5848 10.5714 18.418 10.5909C18.5457 10.5885 18.6303 10.6471 18.672 10.7667C18.6914 10.9094 18.6979 11.0526 18.6915 11.1964C17.6759 11.1964 16.6602 11.1964 15.6446 11.1964C15.6381 11.0396 15.6447 10.8834 15.6641 10.7277C15.7341 10.6445 15.8188 10.5925 15.918 10.5714ZM15.6446 11.8214C16.6602 11.8214 17.6759 11.8214 18.6915 11.8214C18.6915 12.85 18.6915 13.8787 18.6915 14.9074C17.6759 14.9074 16.6602 14.9074 15.6446 14.9074C15.6446 13.8787 15.6446 12.85 15.6446 11.8214ZM15.6446 15.5714C16.6602 15.5714 17.6759 15.5714 18.6915 15.5714C18.6979 15.7152 18.6914 15.8584 18.672 16.0011C18.6524 16.0727 18.6068 16.1183 18.5352 16.1378C18.0822 16.1822 17.6264 16.2017 17.168 16.1964C16.7097 16.2017 16.2539 16.1822 15.8009 16.1378C15.745 16.1197 15.6994 16.0871 15.6641 16.0402C15.6447 15.8845 15.6381 15.7282 15.6446 15.5714Z" fill="#24223E"></path><path opacity="0.931" fill-rule="evenodd" clip-rule="evenodd" d="M10.8785 10.5323C11.0239 10.5434 11.1345 10.6085 11.2106 10.7277C11.2366 11.4568 11.2366 12.186 11.2106 12.9152C11.1508 13.033 11.0532 13.085 10.9176 13.0714C10.782 13.085 10.6844 13.033 10.6246 12.9152C10.5812 12.5463 10.5617 12.1752 10.566 11.8019C10.5726 11.4829 10.579 11.1639 10.5856 10.8448C10.6121 10.6686 10.7098 10.5645 10.8785 10.5323Z" fill="#24223E"></path><path opacity="0.949" fill-rule="evenodd" clip-rule="evenodd" d="M6.97302 13.0714C7.2988 13.0649 7.62431 13.0714 7.94958 13.0909C8.02118 13.1105 8.06677 13.156 8.0863 13.2277C8.11235 13.3318 8.11235 13.436 8.0863 13.5402C8.06677 13.6118 8.02118 13.6573 7.94958 13.6769C7.62407 13.7029 7.29853 13.7029 6.97302 13.6769C6.76681 13.4752 6.76681 13.2733 6.97302 13.0714Z" fill="#24223E"></path><path opacity="0.917" fill-rule="evenodd" clip-rule="evenodd" d="M12.793 14.9073C13.0693 14.8941 13.3427 14.9136 13.6133 14.9659C13.8267 15.1768 13.8137 15.3722 13.5742 15.5519C13.418 15.5584 13.2617 15.5649 13.1055 15.5714C12.9188 15.5757 12.7366 15.5561 12.5586 15.5128C12.4544 15.3436 12.4544 15.1743 12.5586 15.005C12.6411 14.972 12.7192 14.9395 12.793 14.9073Z" fill="#24223E"></path></svg> 