<?xml version="1.0" encoding="UTF-8"?> <svg xmlns="http://www.w3.org/2000/svg" width="20" height="21" viewBox="0 0 20 21" fill="none"><g clip-path="url(#clip0_638_2087)"><path opacity="0.959" fill-rule="evenodd" clip-rule="evenodd" d="M7.16797 1.46728C8.91836 1.31022 10.3571 1.89616 11.4844 3.2251C12.1111 2.77934 12.8077 2.61657 13.5742 2.73682C14.9116 3.03906 15.6929 3.86589 15.918 5.21729C17.1316 5.04639 18.1147 5.43701 18.8672 6.38916C19.3958 7.23615 19.5 8.13459 19.1797 9.08447C18.7663 10.0496 18.0436 10.629 17.0117 10.8228C16.5432 10.8423 16.0744 10.8488 15.6055 10.8423C15.6055 12.4048 15.6055 13.9673 15.6055 15.5298C15.8268 15.5298 16.0482 15.5298 16.2695 15.5298C16.3765 15.0387 16.676 14.7326 17.168 14.6118C18.1086 14.4959 18.6425 14.9061 18.7695 15.8423C18.7418 16.2951 18.5465 16.6531 18.1836 16.9165C17.7474 17.1342 17.3047 17.1472 16.8555 16.9556C16.5473 16.7712 16.352 16.5042 16.2695 16.1548C16.0482 16.1548 15.8268 16.1548 15.6055 16.1548C15.5989 16.8841 15.6055 17.6132 15.625 18.3423C15.6445 18.5181 15.7422 18.6157 15.918 18.6353C16.2432 18.6548 16.5688 18.6613 16.8945 18.6548C17.0015 18.1637 17.301 17.8576 17.793 17.7368C18.4514 17.6137 18.9397 17.8416 19.2578 18.4204C19.5374 19.2868 19.2574 19.8792 18.418 20.1978C17.8651 20.3044 17.4159 20.1416 17.0703 19.7095C16.9697 19.5835 16.9111 19.4402 16.8945 19.2798C16.4777 19.2863 16.061 19.2798 15.6445 19.2603C15.3255 19.1496 15.1107 18.9347 15 18.6157C14.9805 17.7955 14.9739 16.9752 14.9805 16.1548C14.0559 16.1613 13.1314 16.1548 12.207 16.1353C11.888 16.0246 11.6732 15.8097 11.5625 15.4907C11.543 13.9413 11.5364 12.3918 11.543 10.8423C11.1263 10.8423 10.7096 10.8423 10.293 10.8423C10.293 13.147 10.293 15.4517 10.293 17.7563C10.7841 17.8633 11.0901 18.1628 11.2109 18.6548C11.3339 19.3529 11.08 19.8542 10.4492 20.1587C9.81902 20.3566 9.30469 20.1938 8.90625 19.6704C8.68856 19.2342 8.67555 18.7915 8.86719 18.3423C9.0516 18.0342 9.31856 17.8388 9.66797 17.7563C9.66797 15.4517 9.66797 13.147 9.66797 10.8423C9.25129 10.8423 8.83465 10.8423 8.41797 10.8423C8.42449 12.1835 8.41797 13.5246 8.39844 14.8657C8.28777 15.1847 8.07293 15.3996 7.75391 15.5103C6.82953 15.5298 5.90504 15.5363 4.98047 15.5298C4.98699 16.5585 4.98047 17.5872 4.96094 18.6157C4.85027 18.9347 4.63543 19.1496 4.31641 19.2603C3.89994 19.2798 3.48328 19.2863 3.06641 19.2798C2.9594 19.7709 2.65992 20.0769 2.16797 20.1978C1.22746 20.3137 0.693613 19.9036 0.566406 18.9673C0.693613 18.031 1.22746 17.6208 2.16797 17.7368C2.65992 17.8576 2.9594 18.1637 3.06641 18.6548C3.39219 18.6613 3.71771 18.6548 4.04297 18.6353C4.15992 18.6194 4.24457 18.5608 4.29688 18.4595C4.35438 17.4854 4.37391 16.5089 4.35547 15.5298C4.1341 15.5298 3.91277 15.5298 3.69141 15.5298C3.5844 16.0209 3.28492 16.3269 2.79297 16.4478C1.85246 16.5637 1.31861 16.1536 1.19141 15.2173C1.31861 14.281 1.85246 13.8708 2.79297 13.9868C3.28492 14.1076 3.5844 14.4137 3.69141 14.9048C3.91277 14.9048 4.1341 14.9048 4.35547 14.9048C4.35547 13.5506 4.35547 12.1965 4.35547 10.8423C3.81961 10.8581 3.28576 10.8386 2.75391 10.7837C1.38663 10.3732 0.67048 9.45525 0.605469 8.02979C0.640039 6.78201 1.22598 5.90311 2.36328 5.39307C2.6328 5.30479 2.90623 5.23318 3.18359 5.17822C3.73557 3.10266 5.06371 1.86568 7.16797 1.46728ZM7.67578 2.09228C9.47316 2.14707 10.7557 2.98041 11.5234 4.59229C11.6983 5.00439 11.796 5.43408 11.8164 5.88135C12.038 5.87119 12.2593 5.85818 12.4805 5.84229C12.4382 5.10635 12.2298 4.42274 11.8555 3.7915C12.3965 3.39946 12.9955 3.28227 13.6523 3.43994C14.8248 3.85058 15.3521 4.6774 15.2344 5.92041C15.1906 6.14467 15.1189 6.35951 15.0195 6.56494C15.1588 6.68721 15.315 6.79139 15.4883 6.87744C15.5326 6.9067 15.5717 6.90021 15.6055 6.85791C15.7805 6.541 15.8847 6.20244 15.918 5.84229C16.7898 5.73912 17.5386 5.98654 18.1641 6.58447C18.7285 7.29525 18.8457 8.0765 18.5156 8.92822C18.1049 9.72873 17.4473 10.1519 16.543 10.1978C12.168 10.2238 7.79297 10.2238 3.41797 10.1978C2.4267 10.1354 1.7431 9.64717 1.36719 8.73291C1.08516 7.62486 1.41719 6.75896 2.36328 6.13525C3.5838 5.61521 4.57988 5.89514 5.35156 6.9751C5.51395 6.89111 5.67668 6.8065 5.83984 6.72119C5.86023 6.69928 5.87324 6.67322 5.87891 6.64307C5.44516 5.85303 4.78109 5.3908 3.88672 5.25635C4.24633 3.80262 5.13172 2.81954 6.54297 2.30713C6.91965 2.20107 7.29727 2.12945 7.67578 2.09228ZM6.85547 7.09229C7.06543 7.07947 7.27375 7.09248 7.48047 7.13135C7.52805 7.42932 7.56711 7.72877 7.59766 8.02979C7.31121 8.02979 7.02473 8.02979 6.73828 8.02979C6.77168 7.71603 6.81074 7.40353 6.85547 7.09229ZM9.66797 7.09229C10.0846 7.09229 10.5013 7.09229 10.918 7.09229C10.918 7.30061 10.918 7.50896 10.918 7.71729C10.5013 7.71729 10.0846 7.71729 9.66797 7.71729C9.66797 7.50896 9.66797 7.30061 9.66797 7.09229ZM4.98047 10.8423C5.91797 10.8423 6.85547 10.8423 7.79297 10.8423C7.79949 12.0924 7.79297 13.3424 7.77344 14.5923C7.75391 14.7681 7.65625 14.8657 7.48047 14.8853C6.64723 14.9048 5.81391 14.9113 4.98047 14.9048C4.98047 13.5506 4.98047 12.1965 4.98047 10.8423ZM12.168 10.8423C13.1055 10.8423 14.043 10.8423 14.9805 10.8423C14.9805 12.4048 14.9805 13.9673 14.9805 15.5298C14.147 15.5363 13.3137 15.5298 12.4805 15.5103C12.3047 15.4907 12.207 15.3931 12.1875 15.2173C12.168 13.759 12.1614 12.3007 12.168 10.8423ZM2.28516 14.6313C2.95957 14.6219 3.18743 14.9344 2.96875 15.5688C2.72456 15.8232 2.44461 15.8687 2.12891 15.7056C1.87458 15.4614 1.82901 15.1814 1.99219 14.8657C2.07477 14.7633 2.17243 14.6852 2.28516 14.6313ZM17.2852 15.2563C17.9596 15.2469 18.1874 15.5594 17.9688 16.1938C17.7246 16.4482 17.4446 16.4937 17.1289 16.3306C16.8746 16.0864 16.829 15.8064 16.9922 15.4907C17.0748 15.3883 17.1724 15.3102 17.2852 15.2563ZM1.66016 18.3813C2.33457 18.3719 2.56243 18.6844 2.34375 19.3188C2.09956 19.5732 1.81961 19.6187 1.50391 19.4556C1.24958 19.2114 1.20401 18.9314 1.36719 18.6157C1.44977 18.5133 1.54743 18.4352 1.66016 18.3813ZM9.78516 18.3813C10.4596 18.3719 10.6874 18.6844 10.4688 19.3188C10.2246 19.5732 9.94461 19.6187 9.62891 19.4556C9.37457 19.2114 9.32902 18.9314 9.49219 18.6157C9.57477 18.5133 9.67242 18.4352 9.78516 18.3813ZM17.9102 18.3813C18.5846 18.3719 18.8124 18.6844 18.5938 19.3188C18.3496 19.5732 18.0696 19.6187 17.7539 19.4556C17.4996 19.2114 17.454 18.9314 17.6172 18.6157C17.6998 18.5133 17.7974 18.4352 17.9102 18.3813Z" fill="#24223E"></path><path opacity="0.95" fill-rule="evenodd" clip-rule="evenodd" d="M3.06661 6.46729C3.1838 6.46729 3.30099 6.46729 3.41818 6.46729C3.41818 6.68865 3.41818 6.90998 3.41818 7.13135C3.02025 7.13209 2.7403 7.31439 2.57833 7.67822C2.40532 8.4033 2.68527 8.8265 3.41818 8.94775C4.04306 8.96729 4.66806 8.97381 5.29318 8.96729C5.29318 9.17561 5.29318 9.38396 5.29318 9.59229C4.55087 9.59881 3.80869 9.59229 3.06661 9.57275C2.4351 9.40998 2.03797 9.01287 1.87521 8.38135C1.75897 7.41467 2.15611 6.77666 3.06661 6.46729Z" fill="#24223E"></path><path opacity="0.955" fill-rule="evenodd" clip-rule="evenodd" d="M6.38672 6.46729C6.9077 6.46077 7.42855 6.46729 7.94922 6.48682C8.06184 6.54889 8.12043 6.64655 8.125 6.77979C8.23555 7.71628 8.3332 8.65377 8.41797 9.59229C8.20008 9.62073 7.98523 9.62073 7.77344 9.59229C7.73086 9.28057 7.69828 8.96807 7.67578 8.65479C7.33723 8.65479 6.99871 8.65479 6.66016 8.65479C6.63766 8.96807 6.60508 9.28057 6.5625 9.59229C6.3507 9.62073 6.13586 9.62073 5.91797 9.59229C6.00273 8.65377 6.10039 7.71628 6.21094 6.77979C6.22055 6.64288 6.27914 6.53874 6.38672 6.46729ZM6.85547 7.09229C6.81074 7.40354 6.77168 7.71604 6.73828 8.02979C7.02473 8.02979 7.31121 8.02979 7.59766 8.02979C7.56711 7.72878 7.52805 7.42932 7.48047 7.13135C7.27375 7.09249 7.06543 7.07948 6.85547 7.09229Z" fill="#24223E"></path><path opacity="0.994" fill-rule="evenodd" clip-rule="evenodd" d="M9.19922 6.46729C9.92852 6.46077 10.6577 6.46729 11.3867 6.48682C11.4583 6.50635 11.5039 6.55194 11.5234 6.62354C11.5495 7.14436 11.5495 7.66522 11.5234 8.18604C11.5088 8.22182 11.4893 8.2544 11.4648 8.2837C10.8697 8.34104 10.2707 8.36057 9.66797 8.34229C9.66797 8.75897 9.66797 9.17561 9.66797 9.59229C9.45965 9.59229 9.25129 9.59229 9.04297 9.59229C9.03645 8.6026 9.04297 7.61303 9.06251 6.62354C9.08946 6.55128 9.13501 6.49917 9.19922 6.46729ZM9.66797 7.09229C9.66797 7.30061 9.66797 7.50897 9.66797 7.71729C10.0847 7.71729 10.5013 7.71729 10.918 7.71729C10.918 7.50897 10.918 7.30061 10.918 7.09229C10.5013 7.09229 10.0847 7.09229 9.66797 7.09229Z" fill="#24223E"></path><path fill-rule="evenodd" clip-rule="evenodd" d="M12.168 6.46729C12.793 6.46729 13.418 6.46729 14.043 6.46729C14.043 6.67561 14.043 6.88396 14.043 7.09229C13.8346 7.09229 13.6263 7.09229 13.418 7.09229C13.418 7.71729 13.418 8.34229 13.418 8.96729C13.6263 8.96729 13.8346 8.96729 14.043 8.96729C14.043 9.17561 14.043 9.38396 14.043 9.59229C13.418 9.59229 12.793 9.59229 12.168 9.59229C12.168 9.38396 12.168 9.17561 12.168 8.96729C12.3763 8.96729 12.5846 8.96729 12.793 8.96729C12.793 8.34229 12.793 7.71729 12.793 7.09229C12.5846 7.09229 12.3763 7.09229 12.168 7.09229C12.168 6.88396 12.168 6.67561 12.168 6.46729Z" fill="#24223E"></path></g><defs><clipPath id="clip0_638_2087"><rect width="20" height="20" fill="white" transform="translate(0 0.861816)"></rect></clipPath></defs></svg> 