<?xml version="1.0" encoding="UTF-8"?> <svg xmlns="http://www.w3.org/2000/svg" width="33" height="33" viewBox="0 0 33 33" fill="none"><g clip-path="url(#clip0_331_1979)"><path opacity="0.981" fill-rule="evenodd" clip-rule="evenodd" d="M14.1313 0.618652C14.548 0.618652 14.9647 0.618652 15.3813 0.618652C15.9228 0.754425 16.3811 1.03568 16.7563 1.4624C18.0892 1.47752 19.0997 2.05043 19.7876 3.18115C20.0464 3.63652 20.2548 4.11569 20.4126 4.61865C20.8042 4.45688 21.2104 4.35271 21.6313 4.30615C21.6313 13.7437 21.6313 23.1812 21.6313 32.6187C21.4855 32.6187 21.3397 32.6187 21.1938 32.6187C14.8149 31.4912 8.42947 30.3662 2.0376 29.2437C2.85022 22.7429 3.70439 16.2429 4.6001 9.74365C4.72163 9.54153 4.89871 9.40615 5.13135 9.3374C6.27272 8.97428 7.41854 8.63053 8.56885 8.30615C8.94335 6.16185 9.80791 4.24518 11.1626 2.55615C11.9513 1.58825 12.9408 0.942422 14.1313 0.618652ZM14.4438 1.68115C14.8417 1.64373 15.2167 1.71665 15.5688 1.8999C14.8113 2.34486 14.1968 2.93861 13.7251 3.68115C13.068 4.74527 12.6201 5.8911 12.3813 7.11865C11.5369 7.3619 10.6932 7.6119 9.8501 7.86865C9.81885 7.85821 9.7876 7.84784 9.75635 7.8374C10.2208 6.08551 11.0228 4.5126 12.1626 3.11865C12.7758 2.39101 13.5362 1.91185 14.4438 1.68115ZM17.5063 2.68115C18.2502 2.97694 18.7814 3.49778 19.1001 4.24365C19.1817 4.43817 19.2546 4.63608 19.3188 4.8374C19.3098 4.88565 19.289 4.92732 19.2563 4.9624C18.7987 5.10457 18.3404 5.23999 17.8813 5.36865C17.8843 4.45436 17.7593 3.55853 17.5063 2.68115ZM16.1938 2.80615C16.2561 2.80079 16.3082 2.82163 16.3501 2.86865C16.6778 3.79828 16.8341 4.75661 16.8188 5.74365C15.7535 6.04645 14.691 6.35895 13.6313 6.68115C13.9154 5.50881 14.4467 4.46715 15.2251 3.55615C15.5239 3.26686 15.8468 3.01686 16.1938 2.80615ZM14.3188 10.6187C14.9464 10.6027 15.5714 10.6339 16.1938 10.7124C16.484 10.7587 16.7548 10.8524 17.0063 10.9937C16.6643 12.1743 16.3518 13.3618 16.0688 14.5562C14.985 14.1613 13.8809 14.0885 12.7563 14.3374C11.7337 14.768 11.4524 15.4868 11.9126 16.4937C12.048 16.6291 12.1834 16.7645 12.3188 16.8999C13.1322 17.4107 13.9238 17.9523 14.6938 18.5249C16.0729 19.7239 16.625 21.2343 16.3501 23.0562C15.8893 25.6421 14.3476 26.9755 11.7251 27.0562C10.0925 27.0538 8.65497 26.533 7.4126 25.4937C7.39197 25.2833 7.41279 25.075 7.4751 24.8687C7.63422 24.128 7.82172 23.3988 8.0376 22.6812C8.90379 23.3537 9.88297 23.7496 10.9751 23.8687C12.0467 23.7686 12.4842 23.1853 12.2876 22.1187C12.0826 21.6013 11.7597 21.1742 11.3188 20.8374C10.5482 20.359 9.85035 19.786 9.2251 19.1187C8.52104 18.0782 8.27104 16.9323 8.4751 15.6812C8.90535 13.2715 10.2908 11.6986 12.6313 10.9624C13.1945 10.8063 13.757 10.6918 14.3188 10.6187Z" fill="#96C045"></path><path opacity="0.986" fill-rule="evenodd" clip-rule="evenodd" d="M22.1938 4.61865C22.8465 5.19815 23.4923 5.7919 24.1313 6.3999C24.984 6.46791 25.8382 6.50958 26.6938 6.5249C26.7689 6.58131 26.821 6.65423 26.8501 6.74365C28.007 14.6645 29.1842 22.5812 30.3813 30.4937C27.668 31.2293 24.9388 31.9168 22.1938 32.5562C22.1938 23.2437 22.1938 13.9312 22.1938 4.61865Z" fill="#5E8F3C"></path></g></svg> 