<?xml version="1.0" encoding="UTF-8"?> <svg xmlns="http://www.w3.org/2000/svg" width="20" height="21" viewBox="0 0 20 21" fill="none"><g clip-path="url(#clip0_638_2073)"><path opacity="0.953" fill-rule="evenodd" clip-rule="evenodd" d="M19.9805 1.35254C19.9805 5.79266 19.9805 10.2327 19.9805 14.6729C19.7792 15.2969 19.3495 15.642 18.6914 15.708C16.4649 15.7275 14.2383 15.7341 12.0117 15.7275C12.1236 17.3024 12.97 17.96 14.5508 17.7002C15.1855 17.9342 15.4263 18.3834 15.2734 19.0479C15.1268 19.3899 14.8729 19.6047 14.5117 19.6924C11.4909 19.7184 8.47004 19.7184 5.44922 19.6924C4.78457 19.4765 4.53066 19.0273 4.6875 18.3447C4.8282 18.0173 5.06906 17.8024 5.41016 17.7002C6.99098 17.96 7.83734 17.3024 7.94922 15.7275C5.72262 15.7341 3.49605 15.7275 1.26953 15.708C0.611457 15.642 0.181768 15.2969 -0.0195312 14.6729C-0.0195312 10.2327 -0.0195312 5.79266 -0.0195312 1.35254C0.154576 0.794594 0.53218 0.462563 1.11328 0.356445C7.02473 0.330404 12.9362 0.330404 18.8477 0.356445C19.4287 0.462563 19.8064 0.794594 19.9805 1.35254ZM1.19141 1.04004C7.05078 1.03353 12.9102 1.04004 18.7695 1.05957C19.0205 1.11531 19.1833 1.26505 19.2578 1.50879C19.2773 5.11555 19.2839 8.72231 19.2773 12.3291C19.069 12.3291 18.8607 12.3291 18.6523 12.3291C18.6589 8.83949 18.6523 5.34992 18.6328 1.86035C18.579 1.75846 18.4943 1.69987 18.3789 1.68457C12.78 1.65853 7.18098 1.65853 1.58203 1.68457C1.4666 1.69987 1.38196 1.75846 1.32812 1.86035C1.30859 5.34992 1.30208 8.83949 1.30859 12.3291C1.10026 12.3291 0.891926 12.3291 0.683594 12.3291C0.677082 8.72231 0.683594 5.11555 0.703125 1.50879C0.78459 1.2645 0.947352 1.10825 1.19141 1.04004ZM2.01172 2.36816C7.32422 2.36816 12.6367 2.36816 17.9492 2.36816C17.9492 5.68848 17.9492 9.00879 17.9492 12.3291C12.6367 12.3291 7.32422 12.3291 2.01172 12.3291C2.01172 9.00879 2.01172 5.68848 2.01172 2.36816ZM4.98047 3.69629C7.85809 3.69629 10.7357 3.69629 13.6133 3.69629C13.6133 4.0218 13.6133 4.34734 13.6133 4.67285C10.7357 4.67285 7.85809 4.67285 4.98047 4.67285C4.98047 4.34734 4.98047 4.0218 4.98047 3.69629ZM4.98047 5.37598C7.85809 5.37598 10.7357 5.37598 13.6133 5.37598C13.6133 6.18328 13.6133 6.99055 13.6133 7.79785C13.0671 7.64176 12.5203 7.48551 11.9727 7.3291C11.7553 7.3577 11.6381 7.48141 11.6211 7.7002C11.7805 8.24035 11.9368 8.7807 12.0898 9.32129C9.72004 9.32129 7.35027 9.32129 4.98047 9.32129C4.98047 8.00617 4.98047 6.69109 4.98047 5.37598ZM6.34766 7.36816C6.99871 7.36816 7.64973 7.36816 8.30078 7.36816C8.30078 7.57648 8.30078 7.78484 8.30078 7.99316C7.64973 7.99316 6.99871 7.99316 6.34766 7.99316C6.34766 7.78484 6.34766 7.57648 6.34766 7.36816ZM12.5195 8.22754C13.226 8.43023 13.9291 8.64508 14.6289 8.87207C14.5167 8.97117 14.4191 9.08184 14.3359 9.2041C14.3099 9.32129 14.3099 9.43848 14.3359 9.55566C14.5957 9.84801 14.8626 10.1345 15.1367 10.415C15.0071 10.5642 14.8704 10.7074 14.7266 10.8447C14.4584 10.5636 14.1785 10.2966 13.8867 10.0439C13.5797 9.97234 13.3388 10.07 13.1641 10.3369C12.9371 9.63711 12.7222 8.93398 12.5195 8.22754ZM0.683594 13.0322C6.88152 13.0322 13.0794 13.0322 19.2773 13.0322C19.2839 13.5402 19.2773 14.048 19.2578 14.5557C19.1862 14.7575 19.0495 14.8942 18.8477 14.9658C15.8933 15.0111 12.9376 15.0306 9.98047 15.0244C7.02336 15.0306 4.06762 15.0111 1.11328 14.9658C0.911457 14.8942 0.774738 14.7575 0.703125 14.5557C0.683598 14.048 0.677086 13.5402 0.683594 13.0322ZM8.65234 15.7275C9.53777 15.7275 10.4232 15.7275 11.3086 15.7275C11.3244 16.4455 11.5457 17.09 11.9727 17.6611C10.6445 17.6872 9.31641 17.6872 7.98828 17.6611C8.4152 17.09 8.63656 16.4455 8.65234 15.7275ZM5.52734 18.3838C8.49613 18.3773 11.4649 18.3838 14.4336 18.4033C14.7025 18.6168 14.6895 18.8121 14.3945 18.9893C11.4518 19.0153 8.5091 19.0153 5.56641 18.9893C5.26824 18.8057 5.25523 18.6039 5.52734 18.3838Z" fill="#24223E"></path><path opacity="0.951" fill-rule="evenodd" clip-rule="evenodd" d="M4.58985 2.99298C7.7822 2.97378 10.9723 2.99331 14.1602 3.05157C14.2058 3.09715 14.2513 3.14272 14.2969 3.18829C14.3164 4.80282 14.3229 6.41739 14.3164 8.03204C14.6968 8.1306 15.0744 8.24126 15.4492 8.36407C15.6759 8.50896 15.7215 8.69775 15.5859 8.93048C15.4362 9.08021 15.2865 9.22997 15.1367 9.3797C15.4167 9.65966 15.6966 9.93958 15.9766 10.2195C16.0547 10.3497 16.0547 10.48 15.9766 10.6102C15.6315 10.9552 15.2865 11.3003 14.9414 11.6453C14.8295 11.7022 14.7123 11.7152 14.5899 11.6844C14.2845 11.4116 13.985 11.1317 13.6914 10.8445C13.5292 10.9872 13.373 11.1369 13.2227 11.2938C12.9899 11.4293 12.8011 11.3837 12.6563 11.157C12.5334 10.7822 12.4228 10.4046 12.3242 10.0242C9.707 10.0308 7.08981 10.0242 4.47267 10.0047C4.36454 9.93587 4.30595 9.83821 4.29688 9.71173C4.27083 7.58935 4.27083 5.46693 4.29688 3.34454C4.33255 3.17242 4.43021 3.05523 4.58985 2.99298ZM4.98048 3.69611C4.98048 4.02161 4.98048 4.34716 4.98048 4.67267C7.8581 4.67267 10.7357 4.67267 13.6133 4.67267C13.6133 4.34716 13.6133 4.02161 13.6133 3.69611C10.7357 3.69611 7.8581 3.69611 4.98048 3.69611ZM4.98048 5.37579C4.98048 6.69091 4.98048 8.00599 4.98048 9.32111C7.35028 9.32111 9.72005 9.32111 12.0899 9.32111C11.9368 8.78052 11.7805 8.24017 11.6211 7.70001C11.6381 7.48122 11.7553 7.35751 11.9727 7.32892C12.5203 7.48532 13.0672 7.64157 13.6133 7.79767C13.6133 6.99036 13.6133 6.1831 13.6133 5.37579C10.7357 5.37579 7.8581 5.37579 4.98048 5.37579ZM6.34767 7.36798C6.34767 7.5763 6.34767 7.78466 6.34767 7.99298C6.99872 7.99298 7.64974 7.99298 8.30079 7.99298C8.30079 7.78466 8.30079 7.5763 8.30079 7.36798C7.64974 7.36798 6.99872 7.36798 6.34767 7.36798ZM12.5195 8.22736C12.7222 8.9338 12.9371 9.63693 13.1641 10.3367C13.3388 10.0698 13.5797 9.97216 13.8867 10.0438C14.1785 10.2964 14.4584 10.5634 14.7266 10.8445C14.8704 10.7072 15.0071 10.564 15.1367 10.4149C14.8626 10.1343 14.5957 9.84782 14.3359 9.55548C14.3099 9.43829 14.3099 9.32111 14.3359 9.20392C14.4191 9.08165 14.5167 8.97099 14.6289 8.87189C13.9291 8.64489 13.226 8.43005 12.5195 8.22736Z" fill="white"></path><path opacity="0.949" fill-rule="evenodd" clip-rule="evenodd" d="M5.91798 6.66492C6.89708 6.64648 7.87364 6.66601 8.84767 6.72351C8.92528 6.77504 8.97087 6.84664 8.98438 6.93836C9.01044 7.44617 9.01044 7.95398 8.98438 8.46179C8.95415 8.55707 8.89556 8.62871 8.8086 8.67664C7.78958 8.71496 6.77396 8.70195 5.76173 8.63757C5.71481 8.6023 5.68224 8.55675 5.66407 8.50086C5.63802 7.95398 5.63802 7.40711 5.66407 6.86023C5.72669 6.76121 5.8113 6.69609 5.91798 6.66492ZM6.34767 7.36804C6.34767 7.57636 6.34767 7.78472 6.34767 7.99304C6.99872 7.99304 7.64974 7.99304 8.30079 7.99304C8.30079 7.78472 8.30079 7.57636 8.30079 7.36804C7.64974 7.36804 6.99872 7.36804 6.34767 7.36804Z" fill="white"></path><path opacity="0.934" fill-rule="evenodd" clip-rule="evenodd" d="M8.92601 13.6572C9.62926 13.6507 10.3324 13.6572 11.0354 13.6768C11.3871 13.8456 11.4262 14.0669 11.1526 14.3408C10.3713 14.3669 9.59008 14.3669 8.80883 14.3408C8.53937 14.0616 8.57844 13.8338 8.92601 13.6572Z" fill="#24223E"></path></g><defs><clipPath id="clip0_638_2073"><rect width="20" height="20" fill="white" transform="translate(0 0.0439453)"></rect></clipPath></defs></svg> 