<?xml version="1.0" encoding="UTF-8"?> <svg xmlns="http://www.w3.org/2000/svg" width="34" height="33" viewBox="0 0 34 33" fill="none"><g clip-path="url(#clip0_331_2166)"><path opacity="0.946" fill-rule="evenodd" clip-rule="evenodd" d="M20.4562 0.432426C20.7091 0.432426 20.962 0.432426 21.2149 0.432426C21.8249 0.741383 22.0251 1.22608 21.8155 1.88651C21.4984 2.52068 21.1823 3.15289 20.8672 3.78314C20.2753 4.30696 19.7063 4.28588 19.1602 3.71992C19.0167 3.43984 18.9745 3.14481 19.0338 2.83482C19.3288 2.20261 19.6238 1.5704 19.9189 0.938194C20.05 0.712062 20.2291 0.543473 20.4562 0.432426Z" fill="#514B81"></path><path opacity="0.965" fill-rule="evenodd" clip-rule="evenodd" d="M15.6515 2.5192C16.1968 2.40924 16.6288 2.57784 16.9476 3.02497C18.8285 5.8387 20.7251 8.64152 22.6375 11.4334C22.9042 12.0992 22.7251 12.5945 22.1001 12.9191C20.0932 12.9748 18.1755 13.4174 16.347 14.2467C15.9573 14.452 15.5779 14.6733 15.209 14.9105C15.8959 15.5657 16.6124 16.1875 17.3585 16.7755C17.7402 17.1633 17.835 17.6164 17.643 18.1348C17.4351 18.4795 17.1295 18.6481 16.7263 18.6406C16.4972 18.6567 16.2865 18.6041 16.0941 18.4825C15.1761 17.6804 14.2489 16.8902 13.3124 16.1117C12.9418 16.3875 12.5624 16.6509 12.1744 16.902C10.6614 17.6577 9.3443 17.4153 8.22307 16.1749C7.82269 15.5849 7.42225 14.9948 7.02187 14.4047C6.45032 13.1506 6.59784 11.9915 7.46442 10.9276C8.69167 10.0453 9.92447 9.17068 11.1628 8.30392C12.9186 6.84674 14.2358 5.066 15.1142 2.96175C15.2699 2.77329 15.449 2.62577 15.6515 2.5192ZM16.0941 5.68025C16.2583 5.79433 16.3953 5.94184 16.505 6.1228C17.5879 7.77242 18.6943 9.40561 19.8241 11.0224C17.973 11.3093 16.2344 11.9099 14.6084 12.8242C13.9446 11.8337 13.2808 10.8433 12.6169 9.85284C14.0119 8.64854 15.1709 7.25768 16.0941 5.68025ZM10.7835 11.1173C10.8794 11.118 10.9532 11.1601 11.0048 11.2437C11.593 12.1375 12.1936 13.0225 12.8066 13.899C12.2798 14.2677 11.7529 14.6366 11.2261 15.0053C10.72 15.3449 10.2669 15.2922 9.86682 14.8473C9.55071 14.3837 9.23461 13.92 8.9185 13.4564C8.65108 12.9649 8.74591 12.554 9.203 12.2236C9.75618 11.8846 10.283 11.5158 10.7835 11.1173Z" fill="#514B81"></path><path opacity="0.946" fill-rule="evenodd" clip-rule="evenodd" d="M23.8716 3.15337C24.7794 3.18634 25.1693 3.64996 25.0412 4.54424C25.0058 4.68493 24.9425 4.81137 24.8516 4.92356C24.2361 5.39473 23.5933 5.82674 22.9233 6.21959C22.0951 6.42727 21.6104 6.11117 21.4692 5.27128C21.4802 5.02648 21.554 4.8052 21.6905 4.60746C22.3858 4.06563 23.1128 3.58093 23.8716 3.15337Z" fill="#514B81"></path><path opacity="0.978" fill-rule="evenodd" clip-rule="evenodd" d="M24.9465 32.803C19.6781 32.803 14.4096 32.803 9.14123 32.803C8.47779 32.4459 8.29868 31.9191 8.60385 31.2224C8.71973 31.1065 8.83568 30.9906 8.95157 30.8747C9.89634 30.804 10.8447 30.7513 11.7965 30.7167C12.3219 29.377 12.5748 27.9862 12.5552 26.5441C9.75226 26.5546 6.94949 26.5441 4.14677 26.5125C2.80402 26.1976 1.99268 25.3651 1.71276 24.0152C1.67061 18.1779 1.67061 12.3404 1.71276 6.50303C1.97879 5.20445 2.74797 4.37203 4.02033 4.0058C5.10296 3.93431 6.18825 3.9027 7.27621 3.91097C8.25614 3.92151 9.23606 3.93204 10.216 3.94258C10.9729 4.26664 11.1732 4.80402 10.8166 5.55471C10.6982 5.69436 10.5612 5.81027 10.4056 5.90243C8.44966 5.98531 6.4898 6.02746 4.5261 6.02887C4.22991 6.11421 4.00864 6.29334 3.86228 6.56625C3.768 11.4728 3.73639 16.383 3.76745 21.2967C12.6184 21.2967 21.4693 21.2967 30.3203 21.2967C30.3308 16.3022 30.3203 11.3078 30.2886 6.31337C30.236 6.17639 30.1412 6.08155 30.0042 6.02887C29.1612 6.0078 28.3182 5.98672 27.4753 5.96565C26.8366 5.68906 26.6153 5.2149 26.8115 4.54318C26.9384 4.20572 27.1808 4.00552 27.5385 3.94258C28.553 3.88433 29.5645 3.90541 30.5731 4.0058C31.4493 4.29195 32.0289 4.87147 32.3117 5.74438C32.3849 8.82887 32.4165 11.9161 32.4065 15.0063C32.396 18.0092 32.3855 21.0122 32.3749 24.0152C32.095 25.3651 31.2837 26.1976 29.9409 26.5125C27.1172 26.5441 24.2933 26.5546 21.4693 26.5441C21.4579 27.9932 21.7319 29.384 22.2912 30.7167C23.243 30.7513 24.1914 30.804 25.1361 30.8747C25.6539 31.2762 25.7698 31.7714 25.4839 32.3604C25.3281 32.5489 25.149 32.6964 24.9465 32.803ZM16.0955 5.68116C15.1724 7.25858 14.0134 8.64944 12.6184 9.85374C13.2822 10.8442 13.946 11.8346 14.6098 12.8251C16.2359 11.9108 17.9745 11.3102 19.8256 11.0233C18.6958 9.40652 17.5894 7.77333 16.5065 6.1237C16.3968 5.94275 16.2598 5.79523 16.0955 5.68116ZM10.785 11.1182C10.2845 11.5167 9.75763 11.8855 9.20445 12.2245C8.74736 12.5549 8.65253 12.9658 8.91996 13.4573C9.23606 13.9209 9.55217 14.3846 9.86827 14.8482C10.2684 15.2931 10.7215 15.3458 11.2275 15.0063C11.7543 14.6375 12.2812 14.2687 12.808 13.8999C12.1951 13.0235 11.5945 12.1384 11.0062 11.2446C10.9547 11.161 10.8809 11.1189 10.785 11.1182ZM3.76745 23.3198C12.6184 23.3198 21.4693 23.3198 30.3203 23.3198C30.3534 23.8538 30.1217 24.2225 29.6248 24.4262C21.2375 24.4683 12.8502 24.4683 4.46288 24.4262C3.96697 24.2248 3.73516 23.8561 3.76745 23.3198ZM14.6415 26.5441C16.222 26.5441 17.8025 26.5441 19.383 26.5441C19.3818 27.9887 19.5925 29.4007 20.0152 30.7799C18.0132 30.7904 16.0111 30.7799 14.0092 30.7483C14.455 29.3852 14.6657 27.9838 14.6415 26.5441Z" fill="#514B81"></path><path opacity="0.95" fill-rule="evenodd" clip-rule="evenodd" d="M24.63 7.19854C25.031 7.18805 25.4314 7.19854 25.8312 7.23015C26.4853 7.61068 26.6433 8.14806 26.3054 8.84229C26.1147 9.06938 25.8724 9.20632 25.5783 9.25323C24.9348 9.29843 24.2921 9.35109 23.6501 9.41128C22.6824 9.24665 22.3663 8.69878 22.7018 7.76753C22.8513 7.55454 23.0515 7.41754 23.3024 7.3566C23.755 7.30842 24.1975 7.2557 24.63 7.19854Z" fill="#514B81"></path></g><defs><clipPath id="clip0_331_2166"><rect width="32.3691" height="32.3691" fill="white" transform="translate(0.890137 0.465332)"></rect></clipPath></defs></svg> 