<?xml version="1.0" encoding="UTF-8"?> <svg xmlns="http://www.w3.org/2000/svg" width="56" height="55" viewBox="0 0 56 55" fill="none"><rect x="0.5" width="55" height="55" rx="16" fill="url(#paint0_linear_331_2618)"></rect><g clip-path="url(#clip0_331_2618)"><path d="M15.7239 22.7197L28.447 28.8634C28.7783 29.0213 29.2204 29.1038 29.6581 29.1038C30.0957 29.1038 30.5378 29.0213 30.8685 28.8634L43.5915 22.7197C44.2606 22.3975 44.2606 21.8702 43.5915 21.5467L30.8685 15.403C30.5378 15.2451 30.095 15.1626 29.6581 15.1626C29.2211 15.1626 28.7783 15.2451 28.447 15.403L15.7239 21.5467C15.0549 21.8702 15.0549 22.3962 15.7239 22.7197Z" fill="#7B73AE"></path><path d="M43.5917 29.0136C43.5917 29.0136 41.2682 27.8935 40.9601 27.7426C40.652 27.5918 40.5688 27.6002 40.2453 27.7504C39.9217 27.9005 30.8609 32.2769 30.8609 32.2769C30.479 32.4418 30.0665 32.524 29.6505 32.518C29.2141 32.518 28.7707 32.4348 28.44 32.2769C28.44 32.2769 19.6196 28.023 19.2058 27.818C18.7579 27.6021 18.629 27.6021 18.221 27.7955L15.7073 29.0059C15.0383 29.3282 15.0383 29.8561 15.7073 30.179L28.4323 36.3226C28.763 36.4805 29.2058 36.563 29.6427 36.563C30.0797 36.563 30.5225 36.4805 30.8538 36.3226L43.5769 30.1802C44.2607 29.8631 44.2607 29.3372 43.5917 29.0136Z" fill="#7B73AE"></path><path d="M43.5914 36.4804C43.5914 36.4804 41.2679 35.3602 40.9598 35.2075C40.6517 35.0547 40.5686 35.065 40.245 35.2152C39.9215 35.3654 30.8684 39.7514 30.8684 39.7514C30.4864 39.9161 30.0739 39.9981 29.658 39.9918C29.2216 39.9918 28.7782 39.9093 28.4469 39.7514C28.4469 39.7514 19.6265 35.4975 19.2133 35.2926C18.7622 35.0741 18.6332 35.0741 18.2278 35.27L15.7142 36.4804C15.0445 36.8027 15.0445 37.3299 15.7142 37.6535L28.4372 43.7972C28.7679 43.9622 29.2106 44.0376 29.6476 44.0376C30.0846 44.0376 30.5274 43.9551 30.8581 43.7972L43.5837 37.6567C44.2605 37.3299 44.2605 36.804 43.5914 36.4804Z" fill="#7B73AE"></path></g><defs><linearGradient id="paint0_linear_331_2618" x1="0.5" y1="0" x2="59.8575" y2="49.8069" gradientUnits="userSpaceOnUse"><stop stop-color="#F8F8FC"></stop><stop offset="1" stop-color="#F8F8FC"></stop></linearGradient><clipPath id="clip0_331_2618"><rect width="33" height="32" fill="white" transform="translate(13.1504 13.1001)"></rect></clipPath></defs></svg> 