<?xml version="1.0" encoding="UTF-8"?> <svg xmlns="http://www.w3.org/2000/svg" width="56" height="55" viewBox="0 0 56 55" fill="none"><rect x="0.5" width="55" height="55" rx="16" fill="url(#paint0_linear_331_2609)"></rect><g clip-path="url(#clip0_331_2609)"><path d="M20.9546 38.6943L23.8485 35.8003M23.8485 35.8003C24.3434 36.2953 24.931 36.6879 25.5776 36.9557C26.2243 37.2236 26.9174 37.3614 27.6173 37.3614C28.3172 37.3614 29.0103 37.2236 29.657 36.9557C30.3036 36.6879 30.8912 36.2953 31.3861 35.8003C31.881 35.3054 32.2736 34.7179 32.5415 34.0712C32.8093 33.4246 32.9472 32.7315 32.9472 32.0315C32.9472 31.3316 32.8093 30.6385 32.5415 29.9919C32.2736 29.3452 31.881 28.7577 31.3861 28.2627C30.3866 27.2632 29.0309 26.7017 27.6173 26.7017C26.2037 26.7017 24.848 27.2632 23.8485 28.2627C22.849 29.2623 22.2874 30.618 22.2874 32.0315C22.2874 33.4451 22.849 34.8008 23.8485 35.8003Z" stroke="#7B73AE" stroke-width="1.79895" stroke-linecap="round" stroke-linejoin="round"></path><path d="M18.5562 32.9241C17.7684 31.5668 17.3546 30.0249 17.3569 28.4555C17.3569 23.5132 21.3842 19.5063 26.3517 19.5063H32.3482C37.3157 19.5063 41.3429 23.5132 41.3429 28.4555C41.3429 32.3533 38.84 35.6681 35.3464 36.8962" stroke="#7B73AE" stroke-width="1.79895" stroke-linecap="round" stroke-linejoin="round"></path></g><defs><linearGradient id="paint0_linear_331_2609" x1="0.5" y1="0" x2="59.8575" y2="49.8069" gradientUnits="userSpaceOnUse"><stop stop-color="#F8F8FC"></stop><stop offset="1" stop-color="#F8F8FC"></stop></linearGradient><clipPath id="clip0_331_2609"><rect width="27" height="32" fill="white" transform="translate(15.8496 13.1001)"></rect></clipPath></defs></svg> 