<?xml version="1.0" encoding="UTF-8"?> <svg xmlns="http://www.w3.org/2000/svg" width="56" height="55" viewBox="0 0 56 55" fill="none"><rect x="0.5" width="55" height="55" rx="16" fill="url(#paint0_linear_331_2602)"></rect><g clip-path="url(#clip0_331_2602)"><path fill-rule="evenodd" clip-rule="evenodd" d="M26.0288 17.0587C23.6555 17.749 21.5456 19.1391 19.9746 21.0473C18.4037 22.9555 17.4448 25.2932 17.2231 27.7549H22.8352C23.1605 24.0089 24.2466 20.3687 26.0271 17.0569L26.0288 17.0587ZM22.8352 29.9471H17.2231C17.4443 32.4089 18.4028 34.7468 19.9734 36.6553C21.5441 38.5639 23.6538 39.9543 26.0271 40.6451C24.2466 37.3333 23.1605 33.6931 22.8352 29.9471ZM28.8401 41.1133C26.7124 37.7417 25.4087 33.9164 25.0344 29.9471H33.8646C33.4904 33.9164 32.1866 37.7417 30.059 41.1133C29.6529 41.1331 29.2461 41.1331 28.8401 41.1133ZM32.8738 40.6433C35.2467 39.9527 37.3563 38.5625 38.9269 36.6543C40.4975 34.7461 41.4562 32.4086 41.6777 29.9471H36.0656C35.7403 33.6931 34.6542 37.3333 32.8738 40.6451V40.6433ZM36.0656 27.7549H41.6777C41.4565 25.2931 40.498 22.9552 38.9274 21.0467C37.3567 19.1381 35.247 17.7477 32.8738 17.0569C34.6542 20.3687 35.7403 24.0089 36.0656 27.7549ZM28.8401 16.5887C29.2467 16.5688 29.6541 16.5688 30.0607 16.5887C32.1878 19.9605 33.4909 23.7858 33.8646 27.7549H25.0362C25.4167 23.7616 26.7233 19.9331 28.8401 16.5887Z" fill="#7F76B3"></path></g><defs><linearGradient id="paint0_linear_331_2602" x1="0.5" y1="0" x2="59.8575" y2="49.8069" gradientUnits="userSpaceOnUse"><stop stop-color="#F8F8FC"></stop><stop offset="1" stop-color="#F8F8FC"></stop></linearGradient><clipPath id="clip0_331_2602"><rect width="24.5527" height="24.5527" fill="white" transform="translate(17.1738 16.5737)"></rect></clipPath></defs></svg> 