<?xml version="1.0" encoding="UTF-8"?> <svg xmlns="http://www.w3.org/2000/svg" width="56" height="55" viewBox="0 0 56 55" fill="none"><rect x="0.5" width="55" height="55" rx="16" fill="url(#paint0_linear_331_2635)"></rect><g clip-path="url(#clip0_331_2635)"><path opacity="0.981" fill-rule="evenodd" clip-rule="evenodd" d="M25.9062 11.4688C26.3229 11.4688 26.7396 11.4688 27.1562 11.4688C27.6977 11.6045 28.156 11.8858 28.5312 12.3125C29.8641 12.3276 30.8746 12.9005 31.5625 14.0312C31.8213 14.4866 32.0297 14.9658 32.1875 15.4688C32.5791 15.307 32.9853 15.2028 33.4062 15.1562C33.4062 24.5938 33.4062 34.0312 33.4062 43.4688C33.2604 43.4688 33.1146 43.4688 32.9688 43.4688C26.5898 42.3413 20.2044 41.2163 13.8125 40.0938C14.6251 33.593 15.4793 27.093 16.375 20.5938C16.4965 20.3916 16.6736 20.2563 16.9062 20.1875C18.0476 19.8244 19.1934 19.4806 20.3438 19.1562C20.7182 17.0119 21.5828 15.0953 22.9375 13.4062C23.7262 12.4384 24.7157 11.7925 25.9062 11.4688ZM26.2188 12.5312C26.6166 12.4938 26.9916 12.5667 27.3438 12.75C26.5863 13.195 25.9717 13.7887 25.5 14.5312C24.8429 15.5954 24.395 16.7412 24.1562 17.9688C23.3118 18.212 22.4681 18.462 21.625 18.7188C21.5938 18.7083 21.5625 18.6979 21.5312 18.6875C21.9957 16.9356 22.7978 15.3627 23.9375 13.9688C24.5507 13.2411 25.3111 12.7619 26.2188 12.5312ZM29.2812 13.5312C30.0251 13.827 30.5563 14.3479 30.875 15.0938C30.9566 15.2883 31.0295 15.4862 31.0938 15.6875C31.0847 15.7358 31.0639 15.7774 31.0312 15.8125C30.5736 15.9547 30.1153 16.0901 29.6562 16.2188C29.6592 15.3045 29.5342 14.4086 29.2812 13.5312ZM27.9688 13.6562C28.031 13.6509 28.0831 13.6717 28.125 13.7188C28.4528 14.6484 28.609 15.6067 28.5938 16.5938C27.5284 16.8965 26.4659 17.209 25.4062 17.5312C25.6903 16.3589 26.2216 15.3172 27 14.4062C27.2988 14.117 27.6217 13.867 27.9688 13.6562ZM26.0938 21.4688C26.7213 21.4528 27.3463 21.484 27.9688 21.5625C28.2589 21.6088 28.5297 21.7025 28.7812 21.8438C28.4392 23.0244 28.1267 24.2119 27.8438 25.4062C26.7599 25.0114 25.6558 24.9386 24.5312 25.1875C23.5086 25.6181 23.2273 26.3369 23.6875 27.3438C23.8229 27.4792 23.9583 27.6146 24.0938 27.75C24.9071 28.2607 25.6987 28.8024 26.4688 29.375C27.8478 30.574 28.3999 32.0844 28.125 33.9062C27.6642 36.4922 26.1225 37.8256 23.5 37.9062C21.8674 37.9039 20.4299 37.3831 19.1875 36.3438C19.1669 36.1334 19.1877 35.9251 19.25 35.7188C19.4091 34.9781 19.5966 34.2489 19.8125 33.5312C20.6787 34.2038 21.6579 34.5997 22.75 34.7188C23.8216 34.6187 24.2591 34.0354 24.0625 32.9688C23.8575 32.4514 23.5346 32.0243 23.0938 31.6875C22.3231 31.2091 21.6252 30.6361 21 29.9688C20.2959 28.9282 20.0459 27.7824 20.25 26.5312C20.6803 24.1216 22.0657 22.5487 24.4062 21.8125C24.9694 21.6564 25.5319 21.5419 26.0938 21.4688Z" fill="#7B73AE"></path><path opacity="0.986" fill-rule="evenodd" clip-rule="evenodd" d="M33.9688 15.4688C34.6214 16.0483 35.2673 16.642 35.9062 17.25C36.7589 17.318 37.6131 17.3597 38.4688 17.375C38.5438 17.4314 38.5959 17.5043 38.625 17.5938C39.7819 25.5146 40.9591 33.4312 42.1562 41.3438C39.4429 42.0794 36.7137 42.7669 33.9688 43.4062C33.9688 34.0938 33.9688 24.7812 33.9688 15.4688Z" fill="#7B73AE"></path></g><defs><linearGradient id="paint0_linear_331_2635" x1="0.5" y1="0" x2="59.8575" y2="49.8069" gradientUnits="userSpaceOnUse"><stop stop-color="#F8F8FC"></stop><stop offset="1" stop-color="#F8F8FC"></stop></linearGradient><clipPath id="clip0_331_2635"><rect width="32" height="32" fill="white" transform="translate(12 11.5)"></rect></clipPath></defs></svg> 