<?xml version="1.0" encoding="UTF-8"?> <svg xmlns="http://www.w3.org/2000/svg" width="40" height="41" viewBox="0 0 40 41" fill="none"><path d="M20 40.5898C23.9001 40.5898 27.1545 40.4424 29.7893 40.2389C35.1869 39.8219 39.2321 35.7768 39.6491 30.3792C39.8526 27.7445 40 24.4902 40 20.5903C40 16.6904 39.8526 13.4362 39.6491 10.8014C39.2321 5.40386 35.1869 1.35867 29.7893 0.941731C27.1545 0.738202 23.9001 0.59082 20 0.59082C15.9184 0.59082 12.544 0.752236 9.84689 0.970498C4.64501 1.39145 0.754956 5.23088 0.353173 10.4343C0.148476 13.0852 1.8146e-07 16.4389 0 20.5903C-1.8147e-07 24.7417 0.148475 28.0954 0.353172 30.7463C0.754954 35.9497 4.64501 39.7892 9.84688 40.2101C12.544 40.4284 15.9184 40.5898 20 40.5898Z" fill="#F8F8FC"></path><g clip-path="url(#clip0_1_880)"><path opacity="0.953" fill-rule="evenodd" clip-rule="evenodd" d="M29.9805 11.502C29.9805 15.9421 29.9805 20.3821 29.9805 24.8223C29.7792 25.4463 29.3495 25.7914 28.6914 25.8574C26.4649 25.877 24.2383 25.8835 22.0117 25.877C22.1236 27.4518 22.97 28.1094 24.5508 27.8496C25.1855 28.0836 25.4263 28.5329 25.2734 29.1973C25.1268 29.5393 24.8729 29.7541 24.5117 29.8418C21.4909 29.8679 18.47 29.8679 15.4492 29.8418C14.7846 29.6259 14.5307 29.1767 14.6875 28.4941C14.8282 28.1667 15.0691 27.9518 15.4102 27.8496C16.991 28.1094 17.8373 27.4518 17.9492 25.877C15.7226 25.8835 13.4961 25.877 11.2695 25.8574C10.6115 25.7914 10.1818 25.4463 9.98047 24.8223C9.98047 20.3821 9.98047 15.9421 9.98047 11.502C10.1546 10.944 10.5322 10.612 11.1133 10.5059C17.0247 10.4798 22.9362 10.4798 28.8477 10.5059C29.4287 10.612 29.8064 10.944 29.9805 11.502ZM11.1914 11.1895C17.0508 11.1829 22.9102 11.1895 28.7695 11.209C29.0205 11.2647 29.1833 11.4145 29.2578 11.6582C29.2773 15.265 29.2839 18.8717 29.2773 22.4785C29.069 22.4785 28.8607 22.4785 28.6523 22.4785C28.6589 18.9889 28.6523 15.4993 28.6328 12.0098C28.579 11.9079 28.4943 11.8493 28.3789 11.834C22.78 11.8079 17.181 11.8079 11.582 11.834C11.4666 11.8493 11.382 11.9079 11.3281 12.0098C11.3086 15.4993 11.3021 18.9889 11.3086 22.4785C11.1003 22.4785 10.8919 22.4785 10.6836 22.4785C10.6771 18.8717 10.6836 15.265 10.7031 11.6582C10.7846 11.4139 10.9474 11.2577 11.1914 11.1895ZM12.0117 12.5176C17.3242 12.5176 22.6367 12.5176 27.9492 12.5176C27.9492 15.8379 27.9492 19.1582 27.9492 22.4785C22.6367 22.4785 17.3242 22.4785 12.0117 22.4785C12.0117 19.1582 12.0117 15.8379 12.0117 12.5176ZM14.9805 13.8457C17.8581 13.8457 20.7357 13.8457 23.6133 13.8457C23.6133 14.1712 23.6133 14.4968 23.6133 14.8223C20.7357 14.8223 17.8581 14.8223 14.9805 14.8223C14.9805 14.4968 14.9805 14.1712 14.9805 13.8457ZM14.9805 15.5254C17.8581 15.5254 20.7357 15.5254 23.6133 15.5254C23.6133 16.3327 23.6133 17.14 23.6133 17.9473C23.0671 17.7912 22.5203 17.6349 21.9727 17.4785C21.7553 17.5071 21.6381 17.6308 21.6211 17.8496C21.7805 18.3898 21.9368 18.9301 22.0898 19.4707C19.72 19.4707 17.3503 19.4707 14.9805 19.4707C14.9805 18.1556 14.9805 16.8405 14.9805 15.5254ZM16.3477 17.5176C16.9987 17.5176 17.6497 17.5176 18.3008 17.5176C18.3008 17.7259 18.3008 17.9343 18.3008 18.1426C17.6497 18.1426 16.9987 18.1426 16.3477 18.1426C16.3477 17.9343 16.3477 17.7259 16.3477 17.5176ZM22.5195 18.377C23.226 18.5796 23.9291 18.7945 24.6289 19.0215C24.5167 19.1206 24.4191 19.2312 24.3359 19.3535C24.3099 19.4707 24.3099 19.5879 24.3359 19.7051C24.5957 19.9974 24.8626 20.2839 25.1367 20.5645C25.0071 20.7136 24.8704 20.8568 24.7266 20.9941C24.4584 20.713 24.1785 20.446 23.8867 20.1934C23.5797 20.1218 23.3388 20.2194 23.1641 20.4863C22.9371 19.7865 22.7222 19.0834 22.5195 18.377ZM10.6836 23.1816C16.8815 23.1816 23.0794 23.1816 29.2773 23.1816C29.2839 23.6896 29.2773 24.1974 29.2578 24.7051C29.1862 24.9069 29.0495 25.0436 28.8477 25.1152C25.8933 25.1605 22.9376 25.18 19.9805 25.1738C17.0234 25.18 14.0676 25.1605 11.1133 25.1152C10.9115 25.0436 10.7747 24.9069 10.7031 24.7051C10.6836 24.1974 10.6771 23.6896 10.6836 23.1816ZM18.6523 25.877C19.5378 25.877 20.4232 25.877 21.3086 25.877C21.3244 26.5949 21.5457 27.2395 21.9727 27.8105C20.6445 27.8366 19.3164 27.8366 17.9883 27.8105C18.4152 27.2395 18.6366 26.5949 18.6523 25.877ZM15.5273 28.5332C18.4961 28.5267 21.4649 28.5332 24.4336 28.5527C24.7025 28.7662 24.6895 28.9615 24.3945 29.1387C21.4518 29.1647 18.5091 29.1647 15.5664 29.1387C15.2682 28.9552 15.2552 28.7533 15.5273 28.5332Z" fill="#24223E"></path><path opacity="0.951" fill-rule="evenodd" clip-rule="evenodd" d="M14.5899 13.1426C17.7822 13.1234 20.9723 13.143 24.1602 13.2012C24.2058 13.2468 24.2513 13.2924 24.2969 13.338C24.3164 14.9525 24.3229 16.5671 24.3164 18.1817C24.6968 18.2803 25.0744 18.3909 25.4492 18.5137C25.6759 18.6586 25.7215 18.8474 25.5859 19.0801C25.4362 19.2299 25.2865 19.3796 25.1367 19.5294C25.4167 19.8093 25.6966 20.0892 25.9766 20.3692C26.0547 20.4994 26.0547 20.6296 25.9766 20.7598C25.6315 21.1049 25.2865 21.4499 24.9414 21.795C24.8295 21.8519 24.7123 21.8649 24.5899 21.834C24.2845 21.5613 23.985 21.2813 23.6914 20.9942C23.5292 21.1368 23.373 21.2865 23.2227 21.4434C22.9899 21.5789 22.8011 21.5333 22.6563 21.3067C22.5334 20.9319 22.4228 20.5542 22.3242 20.1739C19.707 20.1804 17.0898 20.1739 14.4727 20.1544C14.3645 20.0855 14.3059 19.9879 14.2969 19.8614C14.2708 17.739 14.2708 15.6166 14.2969 13.4942C14.3325 13.3221 14.4302 13.2049 14.5899 13.1426ZM14.9805 13.8458C14.9805 14.1713 14.9805 14.4968 14.9805 14.8223C17.8581 14.8223 20.7357 14.8223 23.6133 14.8223C23.6133 14.4968 23.6133 14.1713 23.6133 13.8458C20.7357 13.8458 17.8581 13.8458 14.9805 13.8458ZM14.9805 15.5255C14.9805 16.8406 14.9805 18.1556 14.9805 19.4708C17.3503 19.4708 19.72 19.4708 22.0899 19.4708C21.9368 18.9302 21.7805 18.3898 21.6211 17.8497C21.6381 17.6309 21.7553 17.5072 21.9727 17.4786C22.5203 17.635 23.0672 17.7912 23.6133 17.9473C23.6133 17.14 23.6133 16.3328 23.6133 15.5255C20.7357 15.5255 17.8581 15.5255 14.9805 15.5255ZM16.3477 17.5176C16.3477 17.726 16.3477 17.9343 16.3477 18.1426C16.9987 18.1426 17.6497 18.1426 18.3008 18.1426C18.3008 17.9343 18.3008 17.726 18.3008 17.5176C17.6497 17.5176 16.9987 17.5176 16.3477 17.5176ZM22.5195 18.377C22.7222 19.0835 22.9371 19.7866 23.1641 20.4864C23.3388 20.2195 23.5797 20.1218 23.8867 20.1934C24.1785 20.4461 24.4584 20.713 24.7266 20.9942C24.8704 20.8569 25.0071 20.7137 25.1367 20.5645C24.8626 20.2839 24.5957 19.9975 24.3359 19.7051C24.3099 19.588 24.3099 19.4708 24.3359 19.3536C24.4191 19.2313 24.5167 19.1206 24.6289 19.0215C23.9291 18.7946 23.226 18.5797 22.5195 18.377Z" fill="white"></path><path opacity="0.949" fill-rule="evenodd" clip-rule="evenodd" d="M15.918 16.8145C16.8971 16.796 17.8736 16.8155 18.8477 16.873C18.9253 16.9246 18.9709 16.9962 18.9844 17.0879C19.0104 17.5957 19.0104 18.1035 18.9844 18.6113C18.9542 18.7066 18.8956 18.7782 18.8086 18.8262C17.7896 18.8645 16.774 18.8515 15.7617 18.7871C15.7148 18.7518 15.6822 18.7063 15.6641 18.6504C15.638 18.1035 15.638 17.5566 15.6641 17.0098C15.7267 16.9107 15.8113 16.8456 15.918 16.8145ZM16.3477 17.5176C16.3477 17.7259 16.3477 17.9343 16.3477 18.1426C16.9987 18.1426 17.6497 18.1426 18.3008 18.1426C18.3008 17.9343 18.3008 17.7259 18.3008 17.5176C17.6497 17.5176 16.9987 17.5176 16.3477 17.5176Z" fill="white"></path><path opacity="0.934" fill-rule="evenodd" clip-rule="evenodd" d="M18.9258 23.8066C19.629 23.8001 20.3321 23.8066 21.0351 23.8262C21.3869 23.995 21.426 24.2163 21.1523 24.4902C20.3711 24.5163 19.5898 24.5163 18.8086 24.4902C18.5391 24.211 18.5782 23.9832 18.9258 23.8066Z" fill="#24223E"></path></g><defs><clipPath id="clip0_1_880"><rect width="20" height="20" fill="white" transform="translate(10 10.1934)"></rect></clipPath></defs></svg> 