<?xml version="1.0" encoding="UTF-8"?> <svg xmlns="http://www.w3.org/2000/svg" width="40" height="41" viewBox="0 0 40 41" fill="none"><path d="M20 40.5898C23.9001 40.5898 27.1545 40.4424 29.7893 40.2389C35.1869 39.8219 39.2321 35.7768 39.6491 30.3792C39.8526 27.7445 40 24.4902 40 20.5903C40 16.6904 39.8526 13.4362 39.6491 10.8014C39.2321 5.40386 35.1869 1.35867 29.7893 0.941731C27.1545 0.738202 23.9001 0.59082 20 0.59082C15.9184 0.59082 12.544 0.752236 9.84689 0.970498C4.64501 1.39145 0.754956 5.23088 0.353173 10.4343C0.148476 13.0852 1.8146e-07 16.4389 0 20.5903C-1.8147e-07 24.7417 0.148475 28.0954 0.353172 30.7463C0.754954 35.9497 4.64501 39.7892 9.84688 40.2101C12.544 40.4284 15.9184 40.5898 20 40.5898Z" fill="#F8F8FC"></path><g clip-path="url(#clip0_1_893)"><path opacity="0.959" fill-rule="evenodd" clip-rule="evenodd" d="M17.168 11.6167C18.9184 11.4596 20.3571 12.0456 21.4844 13.3745C22.1111 12.9287 22.8077 12.766 23.5742 12.8862C24.9116 13.1885 25.6929 14.0153 25.918 15.3667C27.1316 15.1958 28.1147 15.5864 28.8672 16.5386C29.3958 17.3856 29.5 18.284 29.1797 19.2339C28.7663 20.199 28.0436 20.7785 27.0117 20.9722C26.5432 20.9917 26.0744 20.9982 25.6055 20.9917C25.6055 22.5542 25.6055 24.1167 25.6055 25.6792C25.8268 25.6792 26.0482 25.6792 26.2695 25.6792C26.3765 25.1881 26.676 24.8821 27.168 24.7612C28.1086 24.6453 28.6425 25.0555 28.7695 25.9917C28.7418 26.4445 28.5465 26.8026 28.1836 27.0659C27.7474 27.2836 27.3047 27.2966 26.8555 27.105C26.5473 26.9206 26.352 26.6536 26.2695 26.3042C26.0482 26.3042 25.8268 26.3042 25.6055 26.3042C25.5989 27.0335 25.6055 27.7626 25.625 28.4917C25.6445 28.6675 25.7422 28.7651 25.918 28.7847C26.2432 28.8042 26.5688 28.8107 26.8945 28.8042C27.0015 28.3131 27.301 28.007 27.793 27.8862C28.4514 27.7631 28.9397 27.991 29.2578 28.5698C29.5374 29.4362 29.2574 30.0287 28.418 30.3472C27.8651 30.4538 27.4159 30.291 27.0703 29.8589C26.9697 29.7329 26.9111 29.5896 26.8945 29.4292C26.4777 29.4357 26.061 29.4292 25.6445 29.4097C25.3255 29.299 25.1107 29.0842 25 28.7651C24.9805 27.9449 24.9739 27.1246 24.9805 26.3042C24.0559 26.3107 23.1314 26.3042 22.207 26.2847C21.888 26.174 21.6732 25.9592 21.5625 25.6401C21.543 24.0907 21.5364 22.5412 21.543 20.9917C21.1263 20.9917 20.7096 20.9917 20.293 20.9917C20.293 23.2964 20.293 25.6011 20.293 27.9058C20.7841 28.0128 21.0901 28.3122 21.2109 28.8042C21.3339 29.5023 21.08 30.0036 20.4492 30.3081C19.819 30.506 19.3047 30.3432 18.9063 29.8198C18.6886 29.3836 18.6755 28.9409 18.8672 28.4917C19.0516 28.1836 19.3186 27.9883 19.668 27.9058C19.668 25.6011 19.668 23.2964 19.668 20.9917C19.2513 20.9917 18.8346 20.9917 18.418 20.9917C18.4245 22.3329 18.418 23.674 18.3984 25.0151C18.2878 25.3342 18.0729 25.549 17.7539 25.6597C16.8295 25.6792 15.905 25.6857 14.9805 25.6792C14.987 26.7079 14.9805 27.7366 14.9609 28.7651C14.8503 29.0842 14.6354 29.299 14.3164 29.4097C13.8999 29.4292 13.4833 29.4357 13.0664 29.4292C12.9594 29.9203 12.6599 30.2263 12.168 30.3472C11.2275 30.4631 10.6936 30.053 10.5664 29.1167C10.6936 28.1804 11.2275 27.7703 12.168 27.8862C12.6599 28.007 12.9594 28.3131 13.0664 28.8042C13.3922 28.8107 13.7177 28.8042 14.043 28.7847C14.1599 28.7688 14.2446 28.7102 14.2969 28.6089C14.3544 27.6349 14.3739 26.6583 14.3555 25.6792C14.1341 25.6792 13.9128 25.6792 13.6914 25.6792C13.5844 26.1703 13.2849 26.4763 12.793 26.5972C11.8525 26.7131 11.3186 26.303 11.1914 25.3667C11.3186 24.4304 11.8525 24.0203 12.793 24.1362C13.2849 24.2571 13.5844 24.5631 13.6914 25.0542C13.9128 25.0542 14.1341 25.0542 14.3555 25.0542C14.3555 23.7 14.3555 22.3459 14.3555 20.9917C13.8196 21.0076 13.2858 20.988 12.7539 20.9331C11.3866 20.5226 10.6705 19.6047 10.6055 18.1792C10.64 16.9314 11.226 16.0525 12.3633 15.5425C12.6328 15.4542 12.9062 15.3826 13.1836 15.3276C13.7356 13.2521 15.0637 12.0151 17.168 11.6167ZM17.6758 12.2417C19.4732 12.2965 20.7557 13.1298 21.5234 14.7417C21.6983 15.1538 21.796 15.5835 21.8164 16.0308C22.038 16.0206 22.2593 16.0076 22.4805 15.9917C22.4382 15.2558 22.2298 14.5722 21.8555 13.9409C22.3965 13.5489 22.9955 13.4317 23.6523 13.5894C24.8248 14 25.3521 14.8268 25.2344 16.0698C25.1906 16.2941 25.1189 16.5089 25.0195 16.7144C25.1588 16.8366 25.315 16.9408 25.4883 17.0269C25.5326 17.0561 25.5717 17.0496 25.6055 17.0073C25.7805 16.6904 25.8847 16.3519 25.918 15.9917C26.7898 15.8885 27.5386 16.136 28.1641 16.7339C28.7285 17.4447 28.8457 18.2259 28.5156 19.0776C28.1049 19.8781 27.4473 20.3013 26.543 20.3472C22.168 20.3732 17.793 20.3732 13.418 20.3472C12.4267 20.2849 11.7431 19.7966 11.3672 18.8823C11.0852 17.7743 11.4172 16.9084 12.3633 16.2847C13.5838 15.7646 14.5799 16.0446 15.3516 17.1245C15.5139 17.0405 15.6767 16.9559 15.8398 16.8706C15.8602 16.8487 15.8732 16.8226 15.8789 16.7925C15.4452 16.0024 14.7811 15.5402 13.8867 15.4058C14.2463 13.952 15.1317 12.969 16.543 12.4565C16.9196 12.3505 17.2973 12.2789 17.6758 12.2417ZM16.8555 17.2417C17.0654 17.2289 17.2738 17.2419 17.4805 17.2808C17.528 17.5787 17.5671 17.8782 17.5977 18.1792C17.3112 18.1792 17.0247 18.1792 16.7383 18.1792C16.7717 17.8654 16.8107 17.5529 16.8555 17.2417ZM19.668 17.2417C20.0846 17.2417 20.5013 17.2417 20.918 17.2417C20.918 17.45 20.918 17.6584 20.918 17.8667C20.5013 17.8667 20.0846 17.8667 19.668 17.8667C19.668 17.6584 19.668 17.45 19.668 17.2417ZM14.9805 20.9917C15.918 20.9917 16.8555 20.9917 17.793 20.9917C17.7995 22.2418 17.793 23.4918 17.7734 24.7417C17.7539 24.9175 17.6563 25.0151 17.4805 25.0347C16.6472 25.0542 15.8139 25.0607 14.9805 25.0542C14.9805 23.7 14.9805 22.3459 14.9805 20.9917ZM22.168 20.9917C23.1055 20.9917 24.043 20.9917 24.9805 20.9917C24.9805 22.5542 24.9805 24.1167 24.9805 25.6792C24.147 25.6857 23.3137 25.6792 22.4805 25.6597C22.3047 25.6401 22.207 25.5425 22.1875 25.3667C22.168 23.9084 22.1614 22.4501 22.168 20.9917ZM12.2852 24.7808C12.9596 24.7713 13.1874 25.0838 12.9688 25.7183C12.7246 25.9726 12.4446 26.0181 12.1289 25.855C11.8746 25.6108 11.829 25.3308 11.9922 25.0151C12.0748 24.9128 12.1724 24.8346 12.2852 24.7808ZM27.2852 25.4058C27.9596 25.3963 28.1874 25.7088 27.9688 26.3433C27.7246 26.5976 27.4446 26.6431 27.1289 26.48C26.8746 26.2358 26.829 25.9558 26.9922 25.6401C27.0748 25.5378 27.1724 25.4596 27.2852 25.4058ZM11.6602 28.5308C12.3346 28.5213 12.5624 28.8338 12.3438 29.4683C12.0996 29.7226 11.8196 29.7681 11.5039 29.605C11.2496 29.3608 11.204 29.0808 11.3672 28.7651C11.4498 28.6628 11.5474 28.5846 11.6602 28.5308ZM19.7852 28.5308C20.4596 28.5213 20.6874 28.8338 20.4688 29.4683C20.2246 29.7226 19.9446 29.7681 19.6289 29.605C19.3746 29.3608 19.329 29.0808 19.4922 28.7651C19.5748 28.6628 19.6724 28.5846 19.7852 28.5308ZM27.9102 28.5308C28.5846 28.5213 28.8124 28.8338 28.5938 29.4683C28.3496 29.7226 28.0696 29.7681 27.7539 29.605C27.4996 29.3608 27.454 29.0808 27.6172 28.7651C27.6998 28.6628 27.7974 28.5846 27.9102 28.5308Z" fill="#24223E"></path><path opacity="0.95" fill-rule="evenodd" clip-rule="evenodd" d="M13.0664 16.6167C13.1836 16.6167 13.3007 16.6167 13.4179 16.6167C13.4179 16.8381 13.4179 17.0594 13.4179 17.2808C13.02 17.2815 12.7401 17.4638 12.5781 17.8276C12.4051 18.5527 12.685 18.9759 13.4179 19.0972C14.0428 19.1167 14.6678 19.1232 15.2929 19.1167C15.2929 19.325 15.2929 19.5334 15.2929 19.7417C14.5506 19.7482 13.8084 19.7417 13.0664 19.7222C12.4349 19.5594 12.0377 19.1623 11.875 18.5308C11.7587 17.5641 12.1559 16.9261 13.0664 16.6167Z" fill="#24223E"></path><path opacity="0.955" fill-rule="evenodd" clip-rule="evenodd" d="M16.3867 16.6167C16.9077 16.6102 17.4286 16.6167 17.9492 16.6362C18.0618 16.6983 18.1204 16.796 18.125 16.9292C18.2355 17.8657 18.3332 18.8032 18.418 19.7417C18.2001 19.7701 17.9852 19.7701 17.7734 19.7417C17.7309 19.43 17.6983 19.1175 17.6758 18.8042C17.3372 18.8042 16.9987 18.8042 16.6602 18.8042C16.6377 19.1175 16.6051 19.43 16.5625 19.7417C16.3507 19.7701 16.1359 19.7701 15.918 19.7417C16.0027 18.8032 16.1004 17.8657 16.2109 16.9292C16.2205 16.7923 16.2791 16.6882 16.3867 16.6167ZM16.8555 17.2417C16.8107 17.553 16.7717 17.8655 16.7383 18.1792C17.0247 18.1792 17.3112 18.1792 17.5977 18.1792C17.5671 17.8782 17.528 17.5787 17.4805 17.2808C17.2738 17.2419 17.0654 17.2289 16.8555 17.2417Z" fill="#24223E"></path><path opacity="0.994" fill-rule="evenodd" clip-rule="evenodd" d="M19.1992 16.6167C19.9285 16.6102 20.6577 16.6167 21.3867 16.6362C21.4583 16.6558 21.5039 16.7014 21.5234 16.773C21.5495 17.2938 21.5495 17.8146 21.5234 18.3355C21.5088 18.3712 21.4893 18.4038 21.4648 18.4331C20.8697 18.4905 20.2707 18.51 19.668 18.4917C19.668 18.9084 19.668 19.325 19.668 19.7417C19.4597 19.7417 19.2513 19.7417 19.043 19.7417C19.0365 18.752 19.043 17.7624 19.0625 16.773C19.0895 16.7007 19.135 16.6486 19.1992 16.6167ZM19.668 17.2417C19.668 17.45 19.668 17.6584 19.668 17.8667C20.0847 17.8667 20.5013 17.8667 20.918 17.8667C20.918 17.6584 20.918 17.45 20.918 17.2417C20.5013 17.2417 20.0847 17.2417 19.668 17.2417Z" fill="#24223E"></path><path fill-rule="evenodd" clip-rule="evenodd" d="M22.168 16.6167C22.793 16.6167 23.418 16.6167 24.043 16.6167C24.043 16.825 24.043 17.0334 24.043 17.2417C23.8346 17.2417 23.6263 17.2417 23.418 17.2417C23.418 17.8667 23.418 18.4917 23.418 19.1167C23.6263 19.1167 23.8346 19.1167 24.043 19.1167C24.043 19.325 24.043 19.5334 24.043 19.7417C23.418 19.7417 22.793 19.7417 22.168 19.7417C22.168 19.5334 22.168 19.325 22.168 19.1167C22.3763 19.1167 22.5846 19.1167 22.793 19.1167C22.793 18.4917 22.793 17.8667 22.793 17.2417C22.5846 17.2417 22.3763 17.2417 22.168 17.2417C22.168 17.0334 22.168 16.825 22.168 16.6167Z" fill="#24223E"></path></g><defs><clipPath id="clip0_1_893"><rect width="20" height="20" fill="white" transform="translate(10 11.0112)"></rect></clipPath></defs></svg> 