<?xml version="1.0" encoding="UTF-8"?> <svg xmlns="http://www.w3.org/2000/svg" width="40" height="41" viewBox="0 0 40 41" fill="none"><path d="M20 40.5898C23.9001 40.5898 27.1545 40.4424 29.7893 40.2389C35.1869 39.8219 39.2321 35.7768 39.6491 30.3792C39.8526 27.7445 40 24.4902 40 20.5903C40 16.6904 39.8526 13.4362 39.6491 10.8014C39.2321 5.40386 35.1869 1.35867 29.7893 0.941731C27.1545 0.738202 23.9001 0.59082 20 0.59082C15.9184 0.59082 12.544 0.752236 9.84689 0.970498C4.64501 1.39145 0.754956 5.23088 0.353173 10.4343C0.148476 13.0852 1.8146e-07 16.4389 0 20.5903C-1.8147e-07 24.7417 0.148475 28.0954 0.353172 30.7463C0.754954 35.9497 4.64501 39.7892 9.84688 40.2101C12.544 40.4284 15.9184 40.5898 20 40.5898Z" fill="#F8F8FC"></path><g clip-path="url(#clip0_1_908)"><path opacity="0.942" fill-rule="evenodd" clip-rule="evenodd" d="M25.1992 11.8101C25.9284 11.8101 26.6575 11.8101 27.3867 11.8101C27.4832 11.8718 27.5418 11.963 27.5625 12.0835C27.5964 12.4486 27.6355 12.8132 27.6797 13.1772C27.943 12.9448 28.2099 12.7169 28.4805 12.4937C28.6159 12.3848 28.7592 12.3718 28.9102 12.4546C29.3854 12.9299 29.8607 13.4051 30.3359 13.8804C30.4188 14.0314 30.4057 14.1746 30.2969 14.3101C30.0736 14.5806 29.8458 14.8475 29.6133 15.1108C29.9773 15.1551 30.3419 15.1941 30.707 15.228C30.8275 15.2487 30.9187 15.3073 30.9805 15.4038C30.9805 16.133 30.9805 16.8621 30.9805 17.5913C30.9187 17.6878 30.8275 17.7464 30.707 17.7671C30.3419 17.801 29.9773 17.8401 29.6133 17.8843C29.8458 18.1476 30.0736 18.4145 30.2969 18.6851C30.4057 18.8205 30.4188 18.9637 30.3359 19.1147C29.8607 19.59 29.3854 20.0653 28.9102 20.5405C28.7592 20.6233 28.6159 20.6103 28.4805 20.5015C28.2099 20.2782 27.943 20.0504 27.6797 19.8179C27.6355 20.1819 27.5964 20.5465 27.5625 20.9116C27.5466 21.0286 27.4881 21.1132 27.3867 21.1655C26.628 21.2036 25.8728 21.1906 25.1211 21.1265C25.0736 21.0621 25.041 20.9905 25.0234 20.9116C24.9984 20.5569 24.9528 20.2053 24.8867 19.8569C24.632 20.0792 24.3716 20.294 24.1055 20.5015C23.97 20.6103 23.8268 20.6233 23.6758 20.5405C23.2005 20.0653 22.7253 19.59 22.25 19.1147C22.1672 18.9637 22.1802 18.8205 22.2891 18.6851C22.5123 18.4145 22.7402 18.1476 22.9727 17.8843C22.6214 17.8426 22.2699 17.8036 21.918 17.7671C21.7847 17.7625 21.6871 17.7039 21.625 17.5913C21.599 16.8621 21.599 16.133 21.625 15.4038C21.6871 15.2912 21.7847 15.2326 21.918 15.228C22.2699 15.1915 22.6214 15.1525 22.9727 15.1108C22.7402 14.8475 22.5123 14.5806 22.2891 14.3101C22.1802 14.1746 22.1672 14.0314 22.25 13.8804C22.7253 13.4051 23.2005 12.9299 23.6758 12.4546C23.8268 12.3718 23.97 12.3848 24.1055 12.4937C24.3716 12.7011 24.632 12.916 24.8867 13.1382C24.9528 12.7898 24.9984 12.4382 25.0234 12.0835C25.0442 11.963 25.1027 11.8718 25.1992 11.8101ZM25.668 12.4351C26.0847 12.4351 26.5013 12.4351 26.918 12.4351C26.964 12.9734 27.0356 13.5073 27.1328 14.0366C27.2365 14.1419 27.3602 14.1744 27.5039 14.1343C27.904 13.8645 28.2816 13.5651 28.6367 13.2358C28.6758 13.2098 28.7149 13.2098 28.7539 13.2358C29.0421 13.5109 29.3155 13.7974 29.5742 14.0952C29.2688 14.4789 28.9628 14.863 28.6563 15.2476C28.595 15.4478 28.6536 15.5975 28.832 15.6968C29.3404 15.7554 29.8482 15.814 30.3555 15.8726C30.3555 16.2892 30.3555 16.7059 30.3555 17.1226C29.8178 17.1737 29.284 17.2453 28.7539 17.3374C28.6459 17.4544 28.6134 17.5911 28.6563 17.7476C28.941 18.1235 29.2404 18.4881 29.5547 18.8413C29.5808 18.8804 29.5808 18.9194 29.5547 18.9585C29.2796 19.2467 28.9931 19.5201 28.6953 19.7788C28.3117 19.4733 27.9275 19.1674 27.543 18.8608C27.2152 18.7978 27.0524 18.9346 27.0547 19.271C27.0142 19.7018 26.9686 20.1315 26.918 20.5601C26.5013 20.5601 26.0847 20.5601 25.668 20.5601C25.6146 20.0521 25.556 19.5443 25.4922 19.0366C25.3929 18.8581 25.2432 18.7996 25.043 18.8608C24.6584 19.1674 24.2743 19.4733 23.8906 19.7788C23.5928 19.5201 23.3063 19.2467 23.0313 18.9585C23.0052 18.9194 23.0052 18.8804 23.0313 18.8413C23.3455 18.4881 23.645 18.1235 23.9297 17.7476C23.991 17.5474 23.9324 17.3976 23.7539 17.2983C23.2714 17.2397 22.7896 17.1811 22.3086 17.1226C22.2565 16.7059 22.2565 16.2892 22.3086 15.8726C22.7896 15.814 23.2714 15.7554 23.7539 15.6968C23.9324 15.5975 23.991 15.4478 23.9297 15.2476C23.645 14.8716 23.3455 14.507 23.0313 14.1538C23.0052 14.1147 23.0052 14.0757 23.0313 14.0366C23.3063 13.7484 23.5928 13.475 23.8906 13.2163C24.2466 13.4809 24.5916 13.7609 24.9258 14.0562C25.2938 14.2465 25.4956 14.1358 25.5313 13.7241C25.5717 13.2933 25.6173 12.8636 25.668 12.4351ZM26.0195 15.2866C26.6867 15.2066 27.162 15.4671 27.4453 16.0679C27.6317 16.7952 27.3908 17.3225 26.7227 17.6499C25.9954 17.8363 25.468 17.5954 25.1406 16.9272C24.9545 16.1142 25.2475 15.5673 26.0195 15.2866Z" fill="#24223E"></path><path opacity="0.992" fill-rule="evenodd" clip-rule="evenodd" d="M30.9805 19.4663C30.9805 22.1096 30.9805 24.7528 30.9805 27.396C30.8575 27.7078 30.6361 27.9226 30.3164 28.0405C27.9597 28.0601 25.6029 28.0666 23.2461 28.0601C23.308 28.6728 23.3796 29.2848 23.4609 29.896C24.0765 29.9282 24.695 29.9478 25.3164 29.9546C25.6354 30.0653 25.8503 30.2801 25.9609 30.5991C25.987 30.9507 25.987 31.3022 25.9609 31.6538C25.934 31.7261 25.8884 31.7782 25.8242 31.8101C22.595 31.8101 19.3659 31.8101 16.1367 31.8101C16.0725 31.7782 16.027 31.7261 16 31.6538C15.9739 31.3022 15.9739 30.9507 16 30.5991C16.1107 30.2801 16.3255 30.0653 16.6445 29.9546C17.2659 29.9478 17.8844 29.9282 18.5 29.896C18.5813 29.2848 18.6529 28.6728 18.7148 28.0601C16.358 28.0666 14.0013 28.0601 11.6445 28.0405C11.3248 27.9226 11.1035 27.7078 10.9805 27.396C10.9805 23.6721 10.9805 19.9481 10.9805 16.2241C11.1035 15.9124 11.3248 15.6975 11.6445 15.5796C14.8086 15.5535 17.9727 15.5535 21.1367 15.5796C21.2545 15.6393 21.3066 15.737 21.293 15.8726C21.3066 16.0081 21.2545 16.1058 21.1367 16.1655C18.0638 16.1785 14.9909 16.1916 11.918 16.2046C11.7422 16.2241 11.6445 16.3218 11.625 16.4976C11.6055 19.5184 11.599 22.5392 11.6055 25.5601C17.8555 25.5601 24.1055 25.5601 30.3555 25.5601C30.3489 23.5288 30.3555 21.4975 30.375 19.4663C30.4347 19.3485 30.5324 19.2964 30.668 19.3101C30.8073 19.3015 30.9114 19.3537 30.9805 19.4663ZM21.1758 20.5991C21.541 20.5938 21.6452 20.7566 21.4883 21.0874C21.1545 21.2172 21.0048 21.1065 21.0391 20.7554C21.066 20.6831 21.1116 20.631 21.1758 20.5991ZM19.6133 24.0366C19.9785 24.0313 20.0827 24.1941 19.9258 24.5249C19.592 24.6547 19.4423 24.544 19.4766 24.1929C19.5035 24.1206 19.5491 24.0685 19.6133 24.0366ZM11.6055 26.1851C17.8555 26.1851 24.1055 26.1851 30.3555 26.1851C30.362 26.4978 30.3555 26.8103 30.3359 27.1226C30.3164 27.2983 30.2188 27.396 30.043 27.4155C24.0013 27.4416 17.9596 27.4416 11.918 27.4155C11.7422 27.396 11.6445 27.2983 11.625 27.1226C11.6055 26.8103 11.599 26.4978 11.6055 26.1851ZM19.418 28.0601C20.4597 28.0535 21.5014 28.0601 22.543 28.0796C22.6417 28.6939 22.7198 29.3124 22.7773 29.9351C21.5794 29.9351 20.3815 29.9351 19.1836 29.9351C19.2427 29.306 19.3208 28.681 19.418 28.0601ZM16.918 30.5601C19.6263 30.5535 22.3346 30.5601 25.043 30.5796C25.2188 30.5991 25.3164 30.6968 25.3359 30.8726C25.3554 30.9759 25.3619 31.0801 25.3555 31.1851C22.4388 31.1851 19.5221 31.1851 16.6055 31.1851C16.586 30.9951 16.625 30.8193 16.7227 30.6577C16.7936 30.6281 16.8586 30.5956 16.918 30.5601Z" fill="#24223E"></path><path opacity="0.978" fill-rule="evenodd" clip-rule="evenodd" d="M19.457 16.4976C20.0378 16.4004 20.4349 16.6217 20.6484 17.1616C20.7623 17.7021 20.5735 18.0927 20.082 18.3335C20.0495 18.8148 20.03 19.2965 20.0234 19.7788C20.0039 19.8504 19.9583 19.896 19.8867 19.9156C19.2098 19.9351 18.5327 19.9416 17.8555 19.9351C17.8555 20.1434 17.8555 20.3518 17.8555 20.5601C18.7022 20.5731 19.5486 20.5601 20.3945 20.521C20.731 19.9207 21.2127 19.7709 21.8398 20.0718C22.2595 20.4543 22.3441 20.9035 22.0938 21.4195C21.776 21.8048 21.3789 21.9155 20.9023 21.7515C20.6734 21.6332 20.5041 21.4574 20.3945 21.2241C19.5486 21.1851 18.7022 21.1721 17.8555 21.1851C17.8555 21.3934 17.8555 21.6018 17.8555 21.8101C18.5327 21.8036 19.2098 21.8101 19.8867 21.8296C19.9583 21.8491 20.0039 21.8947 20.0234 21.9663C20.03 22.4486 20.0495 22.9304 20.082 23.4116C20.6824 23.7481 20.8322 24.2298 20.5313 24.857C20.2135 25.2423 19.8164 25.353 19.3398 25.189C18.7717 24.8436 18.635 24.3683 18.9297 23.7632C19.0514 23.6088 19.2012 23.4916 19.3789 23.4116C19.4179 23.0872 19.4309 22.7616 19.418 22.4351C18.8972 22.4351 18.3763 22.4351 17.8555 22.4351C17.862 22.7999 17.8555 23.1645 17.8359 23.5288C17.8164 23.6004 17.7708 23.646 17.6992 23.6656C15.9284 23.6916 14.1576 23.6916 12.3867 23.6656C12.3151 23.646 12.2695 23.6004 12.25 23.5288C12.224 21.758 12.224 19.9872 12.25 18.2163C12.2695 18.1447 12.3151 18.0991 12.3867 18.0796C14.1576 18.0536 15.9284 18.0536 17.6992 18.0796C17.7708 18.0991 17.8164 18.1447 17.8359 18.2163C17.8555 18.5807 17.862 18.9453 17.8555 19.3101C18.3763 19.3101 18.8972 19.3101 19.418 19.3101C19.4309 18.9835 19.4179 18.658 19.3789 18.3335C18.7786 17.9971 18.6288 17.5153 18.9297 16.8882C19.0695 16.7019 19.2453 16.5717 19.457 16.4976ZM19.6133 17.1616C19.9785 17.1564 20.0827 17.3191 19.9258 17.6499C19.592 17.7797 19.4423 17.669 19.4766 17.3179C19.5035 17.2456 19.5491 17.1935 19.6133 17.1616ZM12.8555 18.6851C14.3138 18.6851 15.7721 18.6851 17.2305 18.6851C17.2305 20.1434 17.2305 21.6018 17.2305 23.0601C15.7721 23.0601 14.3138 23.0601 12.8555 23.0601C12.8555 21.6018 12.8555 20.1434 12.8555 18.6851ZM21.1758 20.5991C21.1116 20.631 21.066 20.6831 21.0391 20.7554C21.0048 21.1065 21.1545 21.2172 21.4883 21.0874C21.6452 20.7566 21.541 20.5939 21.1758 20.5991ZM19.6133 24.0366C19.5491 24.0685 19.5035 24.1206 19.4766 24.1929C19.4423 24.544 19.592 24.6547 19.9258 24.5249C20.0827 24.1941 19.9785 24.0314 19.6133 24.0366Z" fill="#24223E"></path><path fill-rule="evenodd" clip-rule="evenodd" d="M23.793 22.4351C25.043 22.4351 26.293 22.4351 27.543 22.4351C27.543 22.6434 27.543 22.8517 27.543 23.0601C26.293 23.0601 25.043 23.0601 23.793 23.0601C23.793 22.8517 23.793 22.6434 23.793 22.4351Z" fill="#24223E"></path><path fill-rule="evenodd" clip-rule="evenodd" d="M28.168 22.4351C28.3763 22.4351 28.5846 22.4351 28.793 22.4351C28.793 22.6434 28.793 22.8517 28.793 23.0601C28.5846 23.0601 28.3763 23.0601 28.168 23.0601C28.168 22.8517 28.168 22.6434 28.168 22.4351Z" fill="#24223E"></path><path fill-rule="evenodd" clip-rule="evenodd" d="M23.793 23.6851C24.0013 23.6851 24.2096 23.6851 24.418 23.6851C24.418 23.8934 24.418 24.1017 24.418 24.3101C24.2096 24.3101 24.0013 24.3101 23.793 24.3101C23.793 24.1017 23.793 23.8934 23.793 23.6851Z" fill="#24223E"></path><path fill-rule="evenodd" clip-rule="evenodd" d="M25.043 23.6851C26.293 23.6851 27.543 23.6851 28.793 23.6851C28.793 23.8934 28.793 24.1017 28.793 24.3101C27.543 24.3101 26.293 24.3101 25.043 24.3101C25.043 24.1017 25.043 23.8934 25.043 23.6851Z" fill="#24223E"></path></g><defs><clipPath id="clip0_1_908"><rect width="20" height="20" fill="white" transform="translate(11 11.8296)"></rect></clipPath></defs></svg> 