<?xml version="1.0" encoding="UTF-8"?> <svg xmlns="http://www.w3.org/2000/svg" width="40" height="41" viewBox="0 0 40 41" fill="none"><path d="M20 40.5898C23.9001 40.5898 27.1545 40.4424 29.7893 40.2389C35.1869 39.8219 39.2321 35.7768 39.6491 30.3792C39.8526 27.7445 40 24.4902 40 20.5903C40 16.6904 39.8526 13.4362 39.6491 10.8014C39.2321 5.40386 35.1869 1.35867 29.7893 0.941731C27.1545 0.738202 23.9001 0.59082 20 0.59082C15.9184 0.59082 12.544 0.752236 9.84689 0.970498C4.64501 1.39145 0.754956 5.23088 0.353173 10.4343C0.148476 13.0852 1.8146e-07 16.4389 0 20.5903C-1.8147e-07 24.7417 0.148475 28.0954 0.353172 30.7463C0.754954 35.9497 4.64501 39.7892 9.84688 40.2101C12.544 40.4284 15.9184 40.5898 20 40.5898Z" fill="#F8F8FC"></path><path d="M16 25.6008L16.01 25.5898M16 13.5908H11.6C11.4409 13.5908 11.2883 13.654 11.1757 13.7666C11.0632 13.8791 11 14.0317 11 14.1908V28.9908C11 29.1499 11.0632 29.3026 11.1757 29.4151C11.2883 29.5276 11.4409 29.5908 11.6 29.5908H20.4C20.5591 29.5908 20.7117 29.5276 20.8243 29.4151C20.9368 29.3026 21 29.1499 21 28.9908V24.5908" stroke="#24223E" stroke-width="1.5" stroke-linecap="round" stroke-linejoin="round"></path><path d="M27.3359 15.4059C27.8411 15.4059 28.0938 15.5465 28.0938 15.8278C28.0938 15.8851 28.026 16.0205 27.8906 16.234C27.7604 16.4423 27.6068 16.7314 27.4297 17.1012C27.2526 17.471 26.9245 18.3486 26.4453 19.734C25.9661 21.1194 25.6901 21.8824 25.6172 22.0231C25.3776 22.4762 25.0469 22.7028 24.625 22.7028C24.4323 22.7028 24.237 22.5127 24.0391 22.1324C23.8411 21.7522 23.5286 21.0205 23.1016 19.9371C22.6797 18.8486 22.4115 18.3043 22.2969 18.3043C22.2812 18.3043 22.0417 18.8746 21.5781 20.0153C21.1146 21.1507 20.8385 21.8017 20.75 21.9684C20.5 22.4423 20.1953 22.6793 19.8359 22.6793C19.4818 22.6793 19.1016 22.0752 18.6953 20.8668L18.5 20.2574C17.9427 18.4658 17.4245 17.2366 16.9453 16.5699C16.6536 16.1637 16.5078 15.9189 16.5078 15.8356C16.5078 15.7522 16.5495 15.6741 16.6328 15.6012C16.8099 15.4449 17.1224 15.3668 17.5703 15.3668H17.8672C18.4974 15.3668 18.888 15.5022 19.0391 15.7731C19.0964 15.8772 19.1406 16.109 19.1719 16.4684C19.2083 16.8226 19.2526 17.1585 19.3047 17.4762C19.362 17.7887 19.513 18.3304 19.7578 19.1012C20.0026 19.872 20.2344 20.2574 20.4531 20.2574C20.625 20.2574 20.8333 19.9189 21.0781 19.2418C21.3229 18.5647 21.4453 17.9423 21.4453 17.3746C21.4453 17.2392 21.4167 17.0595 21.3594 16.8356C21.3073 16.6116 21.2812 16.458 21.2812 16.3746C21.2812 16.0621 21.474 15.8199 21.8594 15.6481C22.0469 15.5647 22.3281 15.5231 22.7031 15.5231C23.0833 15.5231 23.3984 15.6715 23.6484 15.9684C23.7786 16.1246 23.8438 16.3486 23.8438 16.6403L23.8281 16.8668L23.8203 17.1168C23.8203 17.2627 23.9349 17.7158 24.1641 18.4762C24.3932 19.2314 24.5573 19.7132 24.6562 19.9215C24.7604 20.1246 24.8672 20.2262 24.9766 20.2262C25.2005 20.2262 25.4583 19.7965 25.75 18.9371C26.0469 18.0778 26.1953 17.3408 26.1953 16.7262L26.1328 15.9371C26.1328 15.583 26.5339 15.4059 27.3359 15.4059Z" fill="#24223E"></path></svg> 