<?xml version="1.0" encoding="UTF-8"?> <svg xmlns="http://www.w3.org/2000/svg" width="40" height="41" viewBox="0 0 40 41" fill="none"><path d="M20 40.5898C23.9001 40.5898 27.1545 40.4424 29.7893 40.2389C35.1869 39.8219 39.2321 35.7768 39.6491 30.3792C39.8526 27.7445 40 24.4902 40 20.5903C40 16.6904 39.8526 13.4362 39.6491 10.8014C39.2321 5.40386 35.1869 1.35867 29.7893 0.941731C27.1545 0.738202 23.9001 0.59082 20 0.59082C15.9184 0.59082 12.544 0.752236 9.84689 0.970498C4.64501 1.39145 0.754956 5.23088 0.353173 10.4343C0.148476 13.0852 1.8146e-07 16.4389 0 20.5903C-1.8147e-07 24.7417 0.148475 28.0954 0.353172 30.7463C0.754954 35.9497 4.64501 39.7892 9.84688 40.2101C12.544 40.4284 15.9184 40.5898 20 40.5898Z" fill="#F8F8FC"></path><g clip-path="url(#clip0_1_864)"><path opacity="0.95" fill-rule="evenodd" clip-rule="evenodd" d="M29.9805 12.8667C29.9805 17.3068 29.9805 21.7469 29.9805 26.187C29.8568 26.4842 29.6354 26.673 29.3164 26.7534C26.3477 26.773 23.3789 26.7795 20.4102 26.773C20.4102 27.4631 20.4102 28.1531 20.4102 28.8433C22.5066 28.8367 24.6029 28.8433 26.6992 28.8628C27.0219 28.9181 27.1456 29.1069 27.0703 29.4292C27.0083 29.5564 26.9107 29.641 26.7773 29.6831C22.2461 29.7092 17.7148 29.7092 13.1836 29.6831C12.878 29.5596 12.7933 29.3448 12.9297 29.0386C13.0154 28.9338 13.1261 28.8753 13.2617 28.8628C15.358 28.8433 17.4544 28.8367 19.5508 28.8433C19.5508 28.1531 19.5508 27.4631 19.5508 26.773C16.582 26.7795 13.6133 26.773 10.6445 26.7534C10.3255 26.673 10.1042 26.4842 9.98047 26.187C9.98047 21.7469 9.98047 17.3068 9.98047 12.8667C10.0805 12.5651 10.2888 12.3763 10.6055 12.3003C16.8555 12.2743 23.1055 12.2743 29.3555 12.3003C29.6721 12.3763 29.8805 12.5651 29.9805 12.8667ZM10.8008 13.1401C16.9206 13.1401 23.0404 13.1401 29.1602 13.1401C29.1602 16.7209 29.1602 20.3016 29.1602 23.8823C26.7253 23.8823 24.2904 23.8823 21.8555 23.8823C21.862 23.3223 21.8555 22.7624 21.8359 22.2026C21.8074 22.0309 21.7098 21.9202 21.543 21.8706C20.918 21.8446 20.293 21.8446 19.668 21.8706C19.5627 21.8976 19.478 21.9562 19.4141 22.0464C19.3573 22.6556 19.3378 23.2676 19.3555 23.8823C18.9518 23.8823 18.5482 23.8823 18.1445 23.8823C18.1511 21.4474 18.1445 19.0125 18.125 16.5776C18.0868 16.4556 18.0151 16.3579 17.9102 16.2847C17.2331 16.2586 16.556 16.2586 15.8789 16.2847C15.7664 16.3335 15.6948 16.4181 15.6641 16.5386C15.6445 18.9865 15.638 21.4344 15.6445 23.8823C15.2409 23.8823 14.8372 23.8823 14.4336 23.8823C14.4401 22.2807 14.4336 20.6792 14.4141 19.0776C14.3685 18.9279 14.2708 18.8303 14.1211 18.7847C13.4961 18.7586 12.8711 18.7586 12.2461 18.7847C12.0964 18.8303 11.9987 18.9279 11.9531 19.0776C11.9336 20.6792 11.9271 22.2807 11.9336 23.8823C11.556 23.8823 11.1784 23.8823 10.8008 23.8823C10.8008 20.3016 10.8008 16.7209 10.8008 13.1401ZM23.9258 14.8198C23.9778 15.2226 24.0039 15.6393 24.0039 16.0698C23.9909 16.4865 23.9779 16.9031 23.9648 17.3198C23.2617 16.9031 22.5586 16.4865 21.8555 16.0698C22.3888 15.3931 23.0789 14.9765 23.9258 14.8198ZM24.8242 14.8198C26.0349 15.0374 26.9008 15.7015 27.4219 16.812C27.9539 18.3926 27.5698 19.7012 26.2695 20.7378C25.5201 21.2403 24.6998 21.4161 23.8086 21.2651C24.1286 20.2466 24.4606 19.231 24.8047 18.2183C24.8242 17.0855 24.8307 15.9527 24.8242 14.8198ZM21.3867 16.812C22.2265 17.2905 23.0598 17.7787 23.8867 18.2769C23.5999 19.1831 23.2874 20.075 22.9492 20.9526C21.7965 20.3412 21.1976 19.3776 21.1523 18.062C21.1553 17.6305 21.2334 17.2138 21.3867 16.812ZM16.5039 17.0855C16.7643 17.0855 17.0247 17.0855 17.2852 17.0855C17.2852 19.3511 17.2852 21.6167 17.2852 23.8823C17.0247 23.8823 16.7643 23.8823 16.5039 23.8823C16.5039 21.6167 16.5039 19.3511 16.5039 17.0855ZM12.793 19.6245C13.0534 19.6245 13.3138 19.6245 13.5742 19.6245C13.5742 21.0438 13.5742 22.4631 13.5742 23.8823C13.3138 23.8823 13.0534 23.8823 12.793 23.8823C12.793 22.4631 12.793 21.0438 12.793 19.6245ZM20.1758 22.7105C20.4492 22.7105 20.7227 22.7105 20.9961 22.7105C20.9961 23.1011 20.9961 23.4917 20.9961 23.8823C20.7227 23.8823 20.4492 23.8823 20.1758 23.8823C20.1758 23.4917 20.1758 23.1011 20.1758 22.7105ZM10.8008 24.7026C16.9206 24.7026 23.0404 24.7026 29.1602 24.7026C29.1602 25.1063 29.1602 25.5099 29.1602 25.9136C23.0404 25.9136 16.9206 25.9136 10.8008 25.9136C10.8008 25.5099 10.8008 25.1063 10.8008 24.7026Z" fill="#24223E"></path></g><defs><clipPath id="clip0_1_864"><rect width="20" height="20" fill="white" transform="translate(10 11.0112)"></rect></clipPath></defs></svg> 