<?xml version="1.0" encoding="UTF-8"?> <svg xmlns="http://www.w3.org/2000/svg" width="40" height="41" viewBox="0 0 40 41" fill="none"><path d="M20 40.5898C23.9001 40.5898 27.1545 40.4424 29.7893 40.2389C35.1869 39.8219 39.2321 35.7768 39.6491 30.3792C39.8526 27.7445 40 24.4902 40 20.5903C40 16.6904 39.8526 13.4362 39.6491 10.8014C39.2321 5.40386 35.1869 1.35867 29.7893 0.941731C27.1545 0.738202 23.9001 0.59082 20 0.59082C15.9184 0.59082 12.544 0.752236 9.84689 0.970498C4.64501 1.39145 0.754956 5.23088 0.353173 10.4343C0.148476 13.0852 1.8146e-07 16.4389 0 20.5903C-1.8147e-07 24.7417 0.148475 28.0954 0.353172 30.7463C0.754954 35.9497 4.64501 39.7892 9.84688 40.2101C12.544 40.4284 15.9184 40.5898 20 40.5898Z" fill="#F8F8FC"></path><path opacity="0.981" fill-rule="evenodd" clip-rule="evenodd" d="M13.4961 11.2075C17.8191 11.1945 22.142 11.2075 26.4649 11.2466C27.0052 12.3273 27.5456 13.408 28.086 14.4888C28.1531 15.1095 27.9578 15.6303 27.5 16.0513C27.4805 16.4156 27.474 16.7802 27.4805 17.145C28.0763 17.0358 28.4864 17.2572 28.711 17.8091C28.7305 21.2335 28.737 24.658 28.7305 28.0825C28.9388 28.0825 29.1472 28.0825 29.3555 28.0825C29.3724 28.5282 29.3529 28.971 29.2969 29.4106C29.1675 29.6704 28.9656 29.8462 28.6914 29.938C22.8841 29.964 17.0769 29.964 11.2696 29.938C10.9954 29.8462 10.7936 29.6704 10.6641 29.4106C10.6081 28.971 10.5886 28.5282 10.6055 28.0825C10.8138 28.0825 11.0222 28.0825 11.2305 28.0825C11.224 24.658 11.2305 21.2335 11.25 17.8091C11.4746 17.2572 11.8847 17.0358 12.4805 17.145C12.487 16.7802 12.4805 16.4156 12.461 16.0513C12.0032 15.6303 11.8079 15.1095 11.875 14.4888C12.4265 13.399 12.9668 12.3052 13.4961 11.2075ZM13.9258 11.8325C14.5378 11.8325 15.1498 11.8325 15.7618 11.8325C15.5262 12.7092 15.2723 13.5816 15 14.4497C14.9204 15.5327 14.354 15.9819 13.3008 15.7974C12.7936 15.5773 12.5397 15.1932 12.5391 14.645C13.0124 13.7115 13.4746 12.774 13.9258 11.8325ZM16.4649 11.8325C17.1034 11.8195 17.7414 11.8325 18.3789 11.8716C18.2632 12.8988 18.1525 13.9274 18.0469 14.9575C17.8179 15.6419 17.3427 15.9479 16.6211 15.8755C15.9521 15.6891 15.6331 15.2529 15.6641 14.5669C15.9512 13.6603 16.2181 12.7488 16.4649 11.8325ZM19.043 11.8325C19.6839 11.8074 20.3154 11.8335 20.9375 11.9106C21.0623 12.9236 21.1404 13.9393 21.1719 14.9575C20.942 15.6422 20.4667 15.9483 19.7461 15.8755C18.9759 15.6253 18.6569 15.0979 18.7891 14.2935C18.8686 13.472 18.9533 12.6517 19.043 11.8325ZM21.5821 11.8325C22.2201 11.8325 22.8581 11.8325 23.4961 11.8325C23.7775 12.8069 24.0509 13.7834 24.3164 14.7622C24.2049 15.4465 23.8012 15.8242 23.1055 15.895C22.5626 15.8399 22.1785 15.5664 21.9532 15.0747C21.8192 13.9951 21.6955 12.9143 21.5821 11.8325ZM24.1993 11.8325C24.8118 11.8195 25.4238 11.8325 26.0352 11.8716C26.4974 12.7961 26.9597 13.7205 27.4219 14.645C27.3834 15.3934 26.9862 15.8101 26.2305 15.895C25.42 15.7809 24.9968 15.3122 24.961 14.4888C24.6947 13.6059 24.4408 12.7204 24.1993 11.8325ZM15.2539 15.7388C15.895 16.4948 16.6893 16.7097 17.6368 16.3833C17.9493 16.2337 18.2097 16.0188 18.418 15.7388C19.003 16.4654 19.7452 16.6932 20.6446 16.4224C21.0144 16.2893 21.3138 16.0614 21.543 15.7388C22.128 16.4654 22.8702 16.6932 23.7696 16.4224C24.1394 16.2893 24.4388 16.0614 24.668 15.7388C25.2277 16.4418 25.9439 16.6762 26.8164 16.4419C26.8555 19.9053 26.8685 23.3689 26.8555 26.8325C22.2722 26.8325 17.6888 26.8325 13.1055 26.8325C13.0925 23.3689 13.1055 19.9053 13.1446 16.4419C13.7793 16.622 14.3652 16.5244 14.9024 16.1489C15.0433 16.0279 15.1605 15.8912 15.2539 15.7388ZM12.168 17.77C12.2722 17.77 12.3763 17.77 12.4805 17.77C12.4805 20.9992 12.4805 24.2283 12.4805 27.4575C17.4805 27.4575 22.4805 27.4575 27.4805 27.4575C27.4805 24.2283 27.4805 20.9992 27.4805 17.77C27.6594 17.7549 27.8287 17.7875 27.9883 17.8677C28.0359 17.9321 28.0684 18.0037 28.086 18.0825C28.1055 21.4158 28.112 24.7492 28.1055 28.0825C22.6888 28.0825 17.2722 28.0825 11.8555 28.0825C11.849 24.7492 11.8555 21.4158 11.875 18.0825C11.9016 17.9063 11.9993 17.8022 12.168 17.77ZM18.3008 24.9966C18.6661 24.9913 18.7702 25.1541 18.6133 25.4849C18.2796 25.6146 18.1298 25.504 18.1641 25.1528C18.1911 25.0806 18.2366 25.0285 18.3008 24.9966ZM22.9883 24.9966C23.3536 24.9913 23.4577 25.1541 23.3008 25.4849C22.9671 25.6146 22.8173 25.504 22.8516 25.1528C22.8786 25.0806 22.9241 25.0285 22.9883 24.9966ZM11.2305 28.7075C17.0638 28.7075 22.8972 28.7075 28.7305 28.7075C28.7456 28.8864 28.713 29.0557 28.6328 29.2153C28.5685 29.2629 28.4969 29.2954 28.418 29.313C22.793 29.339 17.168 29.339 11.543 29.313C11.3672 29.2935 11.2696 29.1958 11.25 29.02C11.2306 28.9167 11.2241 28.8125 11.2305 28.7075Z" fill="#24223E"></path><path opacity="0.965" fill-rule="evenodd" clip-rule="evenodd" d="M14.668 17.4575C15.1764 17.4445 15.6843 17.4575 16.1914 17.4966C16.3056 18.0024 16.4098 18.5102 16.5039 19.02C19.4598 19.007 22.4155 19.02 25.3711 19.0591C25.1149 20.8135 24.8805 22.5714 24.668 24.3325C24.2381 24.326 23.8084 24.3325 23.3789 24.352C23.9251 24.5652 24.1399 24.9623 24.0234 25.5434C23.8103 26.0896 23.4131 26.3044 22.832 26.188C22.2859 25.9748 22.071 25.5776 22.1875 24.9966C22.2982 24.6775 22.513 24.4627 22.832 24.352C21.4518 24.326 20.0716 24.326 18.6914 24.352C19.2874 24.6003 19.4893 25.0365 19.2969 25.6606C18.9514 26.2288 18.4762 26.3655 17.8711 26.0708C17.4514 25.6883 17.3668 25.2391 17.6172 24.7231C17.7505 24.5375 17.9263 24.4138 18.1445 24.352C17.7116 24.3572 17.2884 24.3246 16.875 24.2544C16.4622 22.1971 16.0521 20.1398 15.6445 18.0825C15.319 18.0825 14.9935 18.0825 14.668 18.0825C14.668 17.8742 14.668 17.6658 14.668 17.4575ZM16.6211 19.6841C16.9086 21.0176 17.1821 22.3587 17.4414 23.7075C19.655 23.7075 21.8685 23.7075 24.082 23.7075C24.2449 22.3526 24.4141 20.9984 24.5898 19.645C21.927 19.632 19.2707 19.645 16.6211 19.6841ZM18.3008 24.9966C18.2366 25.0284 18.191 25.0805 18.1641 25.1528C18.1298 25.5039 18.2795 25.6146 18.6133 25.4848C18.7702 25.1541 18.666 24.9913 18.3008 24.9966ZM22.9883 24.9966C22.9241 25.0284 22.8516 25.1528 22.8516 25.1528C22.8173 25.5039 22.967 25.6146 23.3008 25.4848C23.4577 25.1541 23.3535 24.9913 22.9883 24.9966Z" fill="#24223E"></path></svg> 