<?xml version="1.0" encoding="UTF-8"?> <svg xmlns="http://www.w3.org/2000/svg" width="40" height="41" viewBox="0 0 40 41" fill="none"><path d="M20 40.5898C23.9001 40.5898 27.1545 40.4424 29.7893 40.2389C35.1869 39.8219 39.2321 35.7768 39.6491 30.3792C39.8526 27.7445 40 24.4902 40 20.5903C40 16.6904 39.8526 13.4362 39.6491 10.8014C39.2321 5.40386 35.1869 1.35867 29.7893 0.941731C27.1545 0.738202 23.9001 0.59082 20 0.59082C15.9184 0.59082 12.544 0.752236 9.84689 0.970498C4.64501 1.39145 0.754956 5.23088 0.353173 10.4343C0.148476 13.0852 1.8146e-07 16.4389 0 20.5903C-1.8147e-07 24.7417 0.148475 28.0954 0.353172 30.7463C0.754954 35.9497 4.64501 39.7892 9.84688 40.2101C12.544 40.4284 15.9184 40.5898 20 40.5898Z" fill="#F8F8FC"></path><path opacity="0.989" fill-rule="evenodd" clip-rule="evenodd" d="M11.2695 14.3213C15.4102 14.3148 19.5508 14.3213 23.6914 14.3408C24.2135 14.532 24.4284 14.9031 24.3359 15.4541C24.1406 15.6624 23.9453 15.6624 23.75 15.4541C23.7414 15.2815 23.6828 15.1317 23.5742 15.0049C23.5222 14.9919 23.47 14.9788 23.418 14.9658C19.4059 14.9271 15.3954 14.9401 11.3867 15.0049C11.2981 15.0657 11.2526 15.1504 11.25 15.2588C11.2305 17.4463 11.224 19.6338 11.2305 21.8213C13.6914 21.8148 16.1524 21.8213 18.6133 21.8408C18.8216 22.0361 18.8216 22.2314 18.6133 22.4268C16.1524 22.4463 13.6914 22.4528 11.2305 22.4463C11.224 22.9673 11.2305 23.4881 11.25 24.0088C11.2681 24.1831 11.3657 24.2808 11.543 24.3018C13.8997 24.3148 16.2565 24.3278 18.6133 24.3408C18.8216 24.5361 18.8216 24.7314 18.6133 24.9268C17.9362 24.9398 17.2591 24.9528 16.582 24.9658C16.52 25.4152 16.3507 25.8189 16.0742 26.1768C16.9075 26.1898 17.7409 26.2028 18.5742 26.2158C18.6458 26.2354 18.6914 26.2809 18.7109 26.3525C18.7472 26.4988 18.7277 26.6355 18.6523 26.7627C17.2755 26.8273 15.8952 26.8403 14.5117 26.8018C14.2723 26.622 14.2592 26.4267 14.4727 26.2158C14.707 26.2028 14.9414 26.1898 15.1758 26.1768C15.5525 25.8522 15.7999 25.4486 15.918 24.9658C14.3685 24.9528 12.819 24.9398 11.2695 24.9268C10.9505 24.8161 10.7357 24.6013 10.625 24.2822C10.599 21.1833 10.599 18.0843 10.625 14.9854C10.7429 14.6657 10.9578 14.4443 11.2695 14.3213Z" fill="#24223E"></path><path opacity="0.964" fill-rule="evenodd" clip-rule="evenodd" d="M20.2539 16.1572C22.2344 16.1388 24.2135 16.1583 26.1914 16.2158C26.6279 16.3659 26.8557 16.6719 26.875 17.1338C26.9113 17.8256 26.8983 18.5157 26.8359 19.2041C26.6635 19.3428 26.4812 19.3558 26.2891 19.2432C26.2325 18.8566 26.2129 18.466 26.2305 18.0713C24.1472 18.0713 22.0638 18.0713 19.9805 18.0713C19.9805 19.9463 19.9805 21.8213 19.9805 23.6963C21.3868 23.6898 22.7931 23.6963 24.1992 23.7158C24.317 23.7755 24.3691 23.8732 24.3555 24.0088C24.3691 24.1444 24.317 24.242 24.1992 24.3018C22.7931 24.3213 21.3868 24.3278 19.9805 24.3213C19.974 24.8423 19.9805 25.3631 20 25.8838C20.0181 26.0581 20.1158 26.1558 20.293 26.1768C21.595 26.1898 22.8972 26.2028 24.1992 26.2158C24.317 26.2755 24.3691 26.3732 24.3555 26.5088C24.3691 26.6444 24.317 26.742 24.1992 26.8018C22.806 26.8278 21.4128 26.8278 20.0195 26.8018C19.6014 26.657 19.3736 26.3641 19.3359 25.9229C19.3099 22.9802 19.3099 20.0374 19.3359 17.0947C19.4145 16.5539 19.7205 16.2414 20.2539 16.1572ZM20.293 16.8213C22.168 16.8148 24.043 16.8213 25.918 16.8408C26.0264 16.8434 26.111 16.8889 26.1719 16.9775C26.217 17.1306 26.2366 17.2868 26.2305 17.4463C24.1472 17.4463 22.0638 17.4463 19.9805 17.4463C19.9744 17.2868 19.9939 17.1306 20.0391 16.9775C20.1091 16.8944 20.1937 16.8423 20.293 16.8213Z" fill="#24223E"></path><path opacity="0.918" fill-rule="evenodd" clip-rule="evenodd" d="M12.0894 16.7822C12.2504 16.7813 12.3741 16.8464 12.4605 16.9775C12.4865 17.29 12.4865 17.6025 12.4605 17.915C12.4008 18.0329 12.3031 18.0849 12.1675 18.0713C12.0728 18.075 11.9881 18.049 11.9136 17.9932C11.8 17.6596 11.787 17.3211 11.8745 16.9775C11.9178 16.8755 11.9894 16.8104 12.0894 16.7822Z" fill="#24223E"></path><path opacity="0.93" fill-rule="evenodd" clip-rule="evenodd" d="M12.0898 18.6572C12.2509 18.6563 12.3746 18.7214 12.4609 18.8525C12.487 19.5817 12.487 20.3109 12.4609 21.04C12.4012 21.1579 12.3036 21.2099 12.168 21.1963C11.9508 21.2071 11.8402 21.1029 11.8359 20.8838C11.8099 20.2588 11.8099 19.6338 11.8359 19.0088C11.8455 18.8322 11.9301 18.715 12.0898 18.6572Z" fill="#24223E"></path><path opacity="0.918" fill-rule="evenodd" clip-rule="evenodd" d="M20.8399 18.6572C21.0009 18.6563 21.1246 18.7214 21.211 18.8525C21.237 19.165 21.237 19.4775 21.211 19.79C21.1512 19.9079 21.0536 19.9599 20.918 19.9463C20.8003 19.9558 20.7026 19.9167 20.625 19.8291C20.5485 19.5033 20.5485 19.1777 20.625 18.8525C20.6778 18.7647 20.7494 18.6996 20.8399 18.6572Z" fill="#24223E"></path><path opacity="0.964" fill-rule="evenodd" clip-rule="evenodd" d="M25.6446 19.9463C26.6603 19.9398 27.6759 19.9463 28.6915 19.9658C28.9657 20.0577 29.1675 20.2334 29.297 20.4932C29.3615 22.3789 29.3745 24.2669 29.336 26.1572C29.2442 26.4314 29.0684 26.6332 28.8087 26.7627C27.7564 26.8268 26.7017 26.8398 25.6446 26.8018C25.3704 26.7099 25.1686 26.5341 25.0391 26.2744C24.9746 24.3887 24.9616 22.5007 25.0001 20.6104C25.118 20.2907 25.3329 20.0693 25.6446 19.9463ZM25.918 20.5713C26.7515 20.5648 27.5848 20.5713 28.418 20.5908C28.5457 20.5884 28.6303 20.647 28.672 20.7666C28.6914 20.9093 28.6979 21.0525 28.6915 21.1963C27.6759 21.1963 26.6602 21.1963 25.6446 21.1963C25.6381 21.0395 25.6447 20.8832 25.6641 20.7275C25.7341 20.6444 25.8188 20.5923 25.918 20.5713ZM25.6446 21.8213C26.6602 21.8213 27.6759 21.8213 28.6915 21.8213C28.6915 22.8499 28.6915 23.8786 28.6915 24.9072C27.6759 24.9072 26.6602 24.9072 25.6446 24.9072C25.6446 23.8786 25.6446 22.8499 25.6446 21.8213ZM25.6446 25.5713C26.6602 25.5713 27.6759 25.5713 28.6915 25.5713C28.6979 25.7151 28.6914 25.8583 28.672 26.001C28.6524 26.0726 28.6068 26.1182 28.5352 26.1377C28.0822 26.182 27.6264 26.2016 27.168 26.1963C26.7097 26.2016 26.2539 26.182 25.8009 26.1377C25.745 26.1195 25.6994 26.087 25.6641 26.04C25.6447 25.8843 25.6381 25.7281 25.6446 25.5713Z" fill="#24223E"></path><path opacity="0.931" fill-rule="evenodd" clip-rule="evenodd" d="M20.8785 20.5322C21.0239 20.5433 21.1345 20.6084 21.2106 20.7275C21.2366 21.4567 21.2366 22.1859 21.2106 22.915C21.1508 23.0329 21.0532 23.0849 20.9176 23.0713C20.782 23.0849 20.6844 23.0329 20.6246 22.915C20.5812 22.5462 20.5617 22.1751 20.566 21.8018C20.5726 21.4827 20.579 21.1637 20.5856 20.8447C20.6121 20.6685 20.7098 20.5644 20.8785 20.5322Z" fill="#24223E"></path><path opacity="0.949" fill-rule="evenodd" clip-rule="evenodd" d="M16.973 23.0713C17.2988 23.0648 17.6243 23.0713 17.9496 23.0908C18.0212 23.1103 18.0668 23.1559 18.0863 23.2275C18.1124 23.3317 18.1124 23.4358 18.0863 23.54C18.0668 23.6116 18.0212 23.6572 17.9496 23.6767C17.6241 23.7028 17.2985 23.7028 16.973 23.6767C16.7668 23.475 16.7668 23.2732 16.973 23.0713Z" fill="#24223E"></path><path opacity="0.917" fill-rule="evenodd" clip-rule="evenodd" d="M22.793 24.9072C23.0693 24.894 23.3427 24.9135 23.6133 24.9658C23.8267 25.1767 23.8137 25.372 23.5742 25.5517C23.418 25.5583 23.2617 25.5648 23.1055 25.5713C22.9188 25.5755 22.7366 25.556 22.5586 25.5127C22.4544 25.3434 22.4544 25.1741 22.5586 25.0049C22.6411 24.9719 22.7192 24.9393 22.793 24.9072Z" fill="#24223E"></path></svg> 