<?xml version="1.0" encoding="UTF-8"?> <svg xmlns="http://www.w3.org/2000/svg" width="86" height="86" viewBox="0 0 86 86" fill="none"><circle cx="43" cy="43" r="43" fill="#514B81"></circle><path d="M42.5 27.5625C36.5996 27.5625 31.8125 32.1188 31.8125 37.7305C31.8125 44.1875 38.9375 54.42 41.5537 57.9543C41.6623 58.1035 41.8046 58.2249 41.9691 58.3086C42.1336 58.3923 42.3155 58.436 42.5 58.436C42.6845 58.436 42.8664 58.3923 43.0309 58.3086C43.1954 58.2249 43.3377 58.1035 43.4463 57.9543C46.0625 54.4215 53.1875 44.1927 53.1875 37.7305C53.1875 32.1188 48.4004 27.5625 42.5 27.5625Z" stroke="white" stroke-width="2.375" stroke-linecap="round" stroke-linejoin="round"></path><path d="M42.5 41.8125C44.4675 41.8125 46.0625 40.2175 46.0625 38.25C46.0625 36.2825 44.4675 34.6875 42.5 34.6875C40.5325 34.6875 38.9375 36.2825 38.9375 38.25C38.9375 40.2175 40.5325 41.8125 42.5 41.8125Z" stroke="white" stroke-width="2.375" stroke-linecap="round" stroke-linejoin="round"></path></svg> 