<?xml version="1.0" encoding="UTF-8"?> <svg xmlns="http://www.w3.org/2000/svg" width="86" height="86" viewBox="0 0 86 86" fill="none"><circle cx="43" cy="43" r="43" fill="#514B81"></circle><g clip-path="url(#clip0_0_149)"><path fill-rule="evenodd" clip-rule="evenodd" d="M38.2356 48.7648C43.5225 54.0517 48.4216 54.6305 49.8599 54.6842C51.5979 54.7474 53.3716 53.3284 54.1389 51.875C52.9151 50.4395 51.3215 49.3258 49.5766 48.1185C48.5468 49.147 47.2776 51.0583 45.5878 50.3735C44.6266 49.9872 42.2534 48.894 40.1799 46.8191C38.105 44.7456 37.0133 42.3724 36.6241 41.4127C35.9394 39.72 37.8561 38.4481 38.886 37.4183C37.6788 35.6445 36.5843 34.0096 35.1515 32.8478C33.6775 33.6178 32.2503 35.3778 32.3149 37.1391C32.3685 38.5774 32.9474 43.4765 38.2356 48.7648ZM49.7581 57.4328C47.7781 57.3599 42.1668 56.5844 36.29 50.709C30.4146 44.8323 29.6405 39.2223 29.5663 37.2409C29.4563 34.2214 31.769 31.2885 34.4406 30.1431C34.7624 30.0042 35.1147 29.9513 35.463 29.9897C35.8113 30.028 36.1437 30.1562 36.4275 30.3618C38.6385 31.9746 40.1634 34.418 41.4738 36.332C41.7464 36.73 41.8712 37.2108 41.8268 37.6911C41.7824 38.1715 41.5714 38.6212 41.2304 38.9624L39.3659 40.8283C39.799 41.7839 40.6804 43.4311 42.1241 44.8749C43.5679 46.3186 45.2151 47.2 46.1721 47.6331L48.0353 45.7686C48.3778 45.4269 48.8294 45.2163 49.3113 45.1733C49.7932 45.1303 50.2749 45.2578 50.6725 45.5335C52.625 46.8865 54.9185 48.3894 56.5905 50.5303C56.8128 50.8161 56.9541 51.1565 56.9998 51.5157C57.0456 51.8748 56.9939 52.2397 56.8504 52.5721C55.6995 55.2575 52.7873 57.5441 49.7581 57.4328Z" fill="white"></path></g><defs><clipPath id="clip0_0_149"><rect width="33" height="33" fill="white" transform="translate(27 27)"></rect></clipPath></defs></svg> 