<?xml version="1.0" encoding="UTF-8"?> <svg xmlns="http://www.w3.org/2000/svg" width="50" height="50" viewBox="0 0 50 50" fill="none"><g id="Icon"><path id="Vector" fill-rule="evenodd" clip-rule="evenodd" d="M34.3333 0.268609C29.9102 0.0609171 18.9544 0.0705324 14.5275 0.268609C10.639 0.447456 7.20633 1.38592 4.44094 4.15322C0.302482 8.29361 0.340943 13.7186 0.394789 21.359C0.400559 22.2571 0.408251 23.1859 0.408251 24.1475C0.408251 25.0455 0.402482 25.9148 0.398636 26.7551C0.354405 34.6513 0.325558 40.0186 4.44094 44.134C8.58517 48.2782 14.0679 48.2359 21.6236 48.1802C22.5275 48.1744 23.464 48.1667 24.4313 48.1667H24.5602C33.7217 48.1667 36.9063 48.1667 40.164 46.9052C44.6179 45.1744 47.9794 41.1955 48.3083 34.0455C48.5159 29.6225 48.5044 18.6686 48.3083 14.2417C47.9121 5.8013 43.3813 0.683994 34.3333 0.266686V0.268609ZM41.5909 11.5628C41.6018 12.0206 41.521 12.4759 41.3533 12.902C41.1856 13.328 40.9344 13.7163 40.6145 14.0438C40.2946 14.3714 39.9124 14.6317 39.4904 14.8094C39.0684 14.9872 38.6152 15.0787 38.1573 15.0787C37.6994 15.0787 37.2462 14.9872 36.8242 14.8094C36.4022 14.6317 36.02 14.3714 35.7001 14.0438C35.3802 13.7163 35.129 13.328 34.9613 12.902C34.7936 12.4759 34.7128 12.0206 34.7236 11.5628C34.7449 10.6662 35.1159 9.81352 35.7576 9.1869C36.3992 8.56029 37.2604 8.20949 38.1573 8.20949C39.0541 8.20949 39.9154 8.56029 40.557 9.1869C41.1986 9.81352 41.5697 10.6662 41.5909 11.5628ZM24.4217 33.3109C26.8505 33.3109 29.1798 32.3461 30.8972 30.6287C32.6146 28.9113 33.5794 26.582 33.5794 24.1532C33.5794 21.7245 32.6146 19.3952 30.8972 17.6778C29.1798 15.9604 26.8505 14.9955 24.4217 14.9955C21.9929 14.9955 19.6636 15.9604 17.9462 17.6778C16.2288 19.3952 15.264 21.7245 15.264 24.1532C15.264 26.582 16.2288 28.9113 17.9462 30.6287C19.6636 32.3461 21.9929 33.3109 24.4217 33.3109Z" fill="white"></path></g></svg> 