<?xml version="1.0" encoding="UTF-8"?> <svg xmlns="http://www.w3.org/2000/svg" width="50" height="50" viewBox="0 0 50 50" fill="none"><g id="Icon"><path id="Vector" d="M37.4716 0.116425H11.3716C5.30282 0.116425 0.383118 5.03613 0.383118 11.1049V37.2049C0.383118 43.2736 5.30282 48.1933 11.3716 48.1933H37.4716C43.5403 48.1933 48.46 43.2736 48.46 37.2049V11.1049C48.46 5.03613 43.5403 0.116425 37.4716 0.116425Z" fill="white"></path><path id="Vector_2" d="M16.7274 18.9992H10.9216C10.8603 18.9989 10.7996 19.0108 10.7429 19.0341C10.6862 19.0573 10.6347 19.0916 10.5913 19.1348C10.5478 19.178 10.5134 19.2294 10.4899 19.286C10.4664 19.3426 10.4543 19.4033 10.4543 19.4646V38.1107C10.4543 38.3665 10.6639 38.5761 10.9216 38.5761H16.7254C16.8489 38.5761 16.9672 38.5271 17.0545 38.4398C17.1418 38.3525 17.1908 38.2341 17.1908 38.1107V19.4646C17.1908 19.3418 17.1423 19.224 17.0559 19.1368C16.9694 19.0497 16.8501 19.0002 16.7274 18.9992ZM13.8293 9.72995C12.8141 9.73046 11.8406 10.1337 11.1224 10.8512C10.4042 11.5686 10 12.5417 9.9985 13.5569C9.9985 15.6665 11.7158 17.3838 13.8293 17.3838C15.9389 17.3838 17.6562 15.6665 17.6562 13.5569C17.6562 11.4473 15.9389 9.72995 13.8293 9.72995ZM31.4908 18.5376C29.16 18.5376 27.437 19.5376 26.3908 20.678V19.4665C26.3908 19.3431 26.3418 19.2247 26.2545 19.1374C26.1672 19.0501 26.0489 19.0011 25.9254 19.0011H20.3677C20.3065 19.0008 20.2457 19.0127 20.189 19.036C20.1324 19.0593 20.0808 19.0935 20.0374 19.1367C19.994 19.18 19.9595 19.2314 19.936 19.2879C19.9125 19.3445 19.9004 19.4052 19.9004 19.4665V38.1107C19.9004 38.3684 20.1081 38.578 20.3658 38.578H26.1581C26.2194 38.578 26.2801 38.5659 26.3367 38.5424C26.3932 38.5189 26.4446 38.4845 26.4879 38.441C26.5311 38.3976 26.5654 38.3461 26.5886 38.2894C26.6119 38.2327 26.6238 38.172 26.6235 38.1107V28.8857C26.6235 25.778 27.4697 24.5665 29.635 24.5665C31.9947 24.5665 32.1831 26.5088 32.1831 29.0473V38.1107C32.1831 38.3684 32.3908 38.578 32.6485 38.578H38.4427C38.504 38.578 38.5647 38.5659 38.6213 38.5424C38.6779 38.5189 38.7293 38.4845 38.7725 38.441C38.8157 38.3976 38.85 38.3461 38.8732 38.2894C38.8965 38.2327 38.9084 38.172 38.9081 38.1107V27.8838C38.9081 23.2626 38.0273 18.5376 31.4908 18.5376Z" fill="black"></path></g></svg> 