<?xml version="1.0" encoding="UTF-8"?> <svg xmlns="http://www.w3.org/2000/svg" width="50" height="50" viewBox="0 0 50 50" fill="none"><g id="Icon"><path id="Vector" d="M37.4716 0.116425H11.3716C5.30282 0.116425 0.383118 5.03613 0.383118 11.1049V37.2049C0.383118 43.2736 5.30282 48.1933 11.3716 48.1933H37.4716C43.5403 48.1933 48.46 43.2736 48.46 37.2049V11.1049C48.46 5.03613 43.5403 0.116425 37.4716 0.116425Z" fill="white"></path><path id="Vector_2" d="M20.8731 26.0135H17.1904C16.5961 26.0135 16.4096 25.7981 16.4096 25.2558V20.8885C16.4096 20.3115 16.6327 20.1289 17.1904 20.1289H20.8731V16.9519C20.8731 15.5096 21.1327 14.1365 21.8769 12.8731C22.6577 11.5731 23.7731 10.7058 25.1846 10.2C26.1058 9.88099 27.0751 9.72291 28.05 9.7327H31.6923C32.2115 9.7327 32.4365 9.94808 32.4365 10.4539V14.5692C32.4365 15.075 32.2135 15.2923 31.6923 15.2923C30.6885 15.2923 29.6846 15.2923 28.6808 15.3269C27.6769 15.3269 27.1558 15.7962 27.1558 16.8077C27.1173 17.8904 27.1558 18.9385 27.1558 20.0577H31.4692C32.0654 20.0577 32.2865 20.2731 32.2865 20.8519V25.2192C32.2865 25.7962 32.1019 25.9789 31.4692 25.9789H27.1558V37.7481C27.1558 38.3615 26.9711 38.5769 26.3019 38.5769H21.6538C21.0961 38.5769 20.8731 38.3615 20.8731 37.8192V26.0135Z" fill="black"></path></g></svg> 